<svg xmlns="http://www.w3.org/2000/svg" width="13" height="16" fill="none" viewBox="0 0 13 16">
    <path fill="#EC5118" d="M11.096 11.314L6.5 16l-4.596-4.686C.994 10.387.376 9.206.124 7.92c-.25-1.285-.121-2.618.37-3.829.493-1.21 1.326-2.246 2.395-2.974C3.958.389 5.214 0 6.5 0s2.542.389 3.611 1.117c1.07.728 1.902 1.763 2.394 2.974.492 1.211.62 2.544.37 3.83-.25 1.285-.87 2.466-1.779 3.393zM6.5 8.1c.383 0 .75-.155 1.021-.431.271-.276.423-.651.423-1.042 0-.39-.152-.765-.423-1.041-.27-.276-.638-.431-1.021-.431-.383 0-.75.155-1.021.431-.271.276-.423.65-.423 1.041 0 .391.152.766.423 1.042.27.276.638.431 1.021.431z"/>
</svg>
