<svg xmlns="http://www.w3.org/2000/svg" width="98" height="20" fill="none" viewBox="0 0 98 20">
    <path fill="#FCFCFC" d="M.337.24h4.209L6.95 12.53 9.5.24h4.064l.36 19.482H11.04l-.312-13.228-2.502 13.228H5.772L3.2 6.422l-.289 13.3H0L.337.24zm21.918 19.746c-2.069 0-3.544-.537-4.426-1.61-.881-1.091-1.323-2.687-1.323-4.787V6.325c0-2.1.442-3.68 1.323-4.738C18.711.53 20.186 0 22.255 0c2.052 0 3.52.537 4.401 1.611.898 1.059 1.347 2.63 1.347 4.714v7.288c0 2.084-.449 3.672-1.347 4.762-.882 1.074-2.349 1.611-4.401 1.611zm0-2.838c.673 0 1.122-.224 1.347-.673.24-.465.36-1.098.36-1.9V5.363c0-.801-.12-1.419-.36-1.852-.225-.448-.674-.673-1.347-.673-.674 0-1.13.225-1.371.673-.225.433-.337 1.05-.337 1.852v9.212c0 .818.112 1.451.337 1.9.224.449.681.673 1.37.673zm13.881 2.838c-1.443 0-2.573-.24-3.39-.721-.819-.497-1.396-1.21-1.733-2.14-.336-.93-.505-2.117-.505-3.56V.24h3.897v13.877c0 .93.112 1.66.336 2.189.225.529.69.793 1.395.793.706 0 1.17-.264 1.395-.793.225-.53.337-1.259.337-2.189V.241h3.92v13.324c0 1.443-.168 2.63-.505 3.56-.336.93-.922 1.643-1.755 2.14-.818.481-1.948.721-3.392.721zM44.557.241h2.766l4.33 10.125V.241h3.294v19.48h-2.67L47.95 8.948v10.775h-3.392V.24zm15.146 2.934h-3.007V.24h9.957v2.934h-2.958v16.547h-3.992V3.175zM70.53.24h4.401l3.752 19.48h-3.656l-.721-4.28h-3.079l-.745 4.28h-3.728L70.53.242zm3.391 12.747l-1.178-7.841-1.155 7.84h2.333zM80.706.24h3.944v19.48h-3.944V.242zm6.904 0h2.766l4.329 10.125V.241H98v19.48h-2.67L91.001 8.948v10.775H87.61V.24z"/>
</svg>
