<svg xmlns="http://www.w3.org/2000/svg" width="815" height="375" fill="none" viewBox="0 0 815 375">
    <path fill="#E6E8EA" d="M498.293 25.42c3.689.859 5.421-3.3 2.98-5.643-.571-.545-2.497-.759-3.29-2.033-.962-1.532-.828-3.577-3.143-3.135-.023.182.029.443-.158.468-.217 3.426 4.778 4.288 4.707 7.05-.034 1.449-1.568 1.603-1.096 3.293zM564.52 6.146c-1.727 0-2.378.68-3.45 1.255-.592.311-1.793.486-1.412 1.409 1.507-.183 4.503-.864 4.862-2.664zm41.119 54.372c.622-1.995-.345-4.01-1.57-5.326-1.812.312-.504 2.192-.627 3.291-.177 1.556-1.831 2.636-1.728 4.23-.602.704-1.631.982-1.722 2.193.997.69 1.434-.543 2.195-1.255 1.201-1.123 3.037-1.788 3.452-3.133zm-169.184 53.434c.088-1.682-.641-2.949-.784-5.326-2.898-1.746-5.063 1.618-8.002 1.251-1.808-.226-3.104-2.328-5.021-2.034-1.059.158-1.582 1.522-2.672 1.721-2.243.411-3.265-1.793-5.647-.938-3.361-2.557-4.863-6.719-5.652-11.44-1.83-2.398-4.624-.447-5.963 1.095-.824-.007-1.855-.454-2.037.472-.618 2.897 4.101 3.205 4.077 5.171-.015 1.278-1.842 1.16-2.666 2.035-.876.93-.294 1.756-1.411 2.35-3.095.372-4.122-1.318-4.083-4.072-1.336-2.026-3.024-3.501-4.236-5.171-.448-.618-1.118-1.58-1.256-2.509-.111-.732.349-1.661.158-2.505-.34-1.495-3.131-2.623-4.867-3.446-1.854-.883-4.177-1.717-5.492-2.821-.932-.784-1.371-2.145-2.197-2.663-.701-.44-1.572-.349-2.199-.783-.86-.602-.716-1.604-1.882-1.884-.591-.217-1.502.586-1.883 1.1-.765 3.418 2.022 3.652 3.293 5.168.877 1.04 1.312 2.607 2.2 3.291.947.732 2.235.598 3.452 1.096.841.345 1.388 1.39 2.195 1.88 1.499.91 3.905 1.069 4.084 2.822-.932.633-3.045-.923-3.767.628-.185 1.018.81 1.54.786 2.505-.04 1.543-1.757 3.233-3.298 2.979-.155-.917.821-1.668.785-2.665-.067-1.995-4.083-5.038-6.118-5.952-.956-.431-2.118-.455-2.986-.942-1.541-.866-4.239-2.996-5.179-4.23-1.122-1.485-2.08-4.23-4.55-4.076-1.007.064-1.839.985-2.667 1.413-.753.384-1.585.74-2.354 1.25-.916.606-1.661 1.22-2.513 1.255-1.97.082-3.643-1.46-5.334-1.096-.572.123-1.046.633-1.729 1.254-.023.914.275 1.5.159 2.505-.511.882-2.029.827-3.138 1.412-1.625.855-3.072 2.612-4.396 3.918-.851.838-1.62 1.53-1.728 2.192-.083.518.44 1.5.317 2.196-.138.756-1.561 2.322-2.512 2.975-.555.381-1.292.433-1.883.783-1.237.732-1.791 1.687-2.825 1.88-2.743.511-7.729-.55-7.69 2.351.025 1.939 2.645 1.947 4.237 1.88 2.219-.088 4.107.471 5.335.158.848-.214 1.775-1.163 2.667-1.567.563-.253 1.145-.258 1.57-.471.939-.47 1.47-1.235 2.199-1.568 1.435-.653 4.106-1.163 5.648-1.253 2.116-.124 4.327.218 7.062 0 .974-.075 1.938-.701 2.984-.784 1.708-.134 3.956.673 5.335.628.956-.03 2.021-.956 3.138-.941 1.264.02 2.596.919 2.826 1.726.131.459-.265 1.19-.158 1.88.181 1.138 1.161 1.609 1.102 2.35-.084.981-2.533 2.29-2.2 3.446.218.744 1.974 1.52 2.825 2.037.892.544 2.398 1.295 3.452 1.409.888.099 1.673-.245 2.514-.153 1.35.146 3.539.965 4.394 1.566 1.475 1.037 1.268 2.698 2.981 3.288.728.253 2.044.111 2.979.317 2.288.494 3.984 2.386 5.652 2.192 2.628-.305 1.431-2.778 1.728-4.542.67-4.001 8.497-3.819 10.043-1.101 1.146.305 2.148.048 3.451.472.754.245 1.316 1.067 2.041 1.254.547.138 1.344-.079 2.041 0 3.008.34 5.735 2.576 8.319 2.192 1.64-.242 2.829-1.781 4.391-1.879 3.004-.187 4.926 2.231 8.164 1.095 2.383-.834 1.852-3.299 2.668-5.797.566-1.737 1.659-2.92 1.723-4.229zm10.046-18.492c4.254-.766 2.312-4.355.155-5.638-1.633-.973-3.586-1.82-5.492-2.98-1.106-.671-5.307-1.942-5.335-3.287-.031-1.472 3.127-1.955 1.882-4.546-2.148-.522-7.256.3-6.903 2.663.202 1.364 1.823.608 2.196 2.037-1.538.546-3.409 1.978-5.023 1.726-1.922-.301-2.416-2.66-3.45-4.077-1.494.048-2.477-1.444-4.238-1.253-1.846.2-2.825 2.876-3.768 4.234-.5.712-1.296 1.08-1.571 1.72-.162.388.017 1.005-.153 1.568-.54 1.74-2.049 2.377-1.887 3.917.147 1.357 1.625 1.966 1.729 3.133-.104 1.204-2.039.578-1.884 2.038 2.809 2.315 2.964-1.092 4.395-1.567 1.15-.383 3.405.317 4.863 0 1.177-.257 2.104-1.377 3.453-1.879.823-.309 1.843-.582 2.984-.63 4.993-.206 8.215 3.04 12.555 3.134 1.434.032 4.003-.044 5.492-.313zm36.883 11.282c.783-5.434-3.456-5.84-4.238-9.714.361.048.174-.452.472-.47 1.03-.496 2.589.79 3.135-.467.011-1.857-2.347-3.24-4.71-2.352-.68-.466-.771-1.523-.939-2.508-1.778-1.056-6.181-3.367-6.121-5.484.051-1.741 2.302-2.72 4.866-2.664 1.083-.818.385-3.335-.627-3.917-4.058-.886-6.22-.288-8.789 1.567-1.233.89-2.607 1.505-3.298 2.039-.634.49-1.482 1.831-1.41 2.504.099.97 1.49 1.54 2.041 2.822.281.66.22 1.487.471 2.037.686 1.512 2.442 2.49 3.765 3.76.936.898 3.558 2.844 3.61 3.916.049.894-.804 1.093-1.094 2.038-.297.927-.637 3.114-.471 3.917.345 1.722 2.128 1.781 3.761 2.508 1.621.722 3.183 1.995 4.866 2.035 1.797.048 3.707-.526 4.71-1.567zm11.615-20.211c2.544-.492.028-4.55-1.887-4.076-2.499.625.151 4.407 1.887 4.076zm36.563-6.426c-.589-1.184-2.285.347-1.565 1.412 1.063.068 1.443-.546 1.565-1.412zm-107.031 155.6c.622-1.151-.991-1.903-1.256-3.136-.31-1.446.351-3.143-.944-3.919h-.468c-1.137 2.568.471 6.805 2.668 7.055zm9.57-16.144c.531-1.084 1.776-2.231 1.57-3.601-.453-3.018-6.108-1.531-6.745.626-.434 1.452.257 2.603-.318 4.075.618 1.159 2.168 1.389 4.082 1.252 1.059-.465.928-1.355 1.411-2.352zm2.199 32.751c.727-1.151 1.637-4.388 0-5.172h-.312c-.701 1.302-1.447 4.445.312 5.172zm-86.788-56.097c-4.522-.661-9.147 1.16-12.242 2.504-1.788.781-3.607 1.968-5.18 2.038-1.489.072-2.956-.79-4.391-.937-1.871-.194-4.269-.014-6.123.313-1.803.32-3.432 1.606-5.022 1.72-3.043.231-5.937-2.737-7.847-4.229-1.169-.909-2.357-1.654-3.451-2.505-1.174-.917-2.695-1.472-3.611-2.351-1.237-1.194-1.237-3.271-1.883-4.859-.764-1.867-3.091-3.24-4.866-5.013-1.328-1.325-4.375-3.307-4.708-5.012-.167-.872.373-1.877.312-2.821-.082-1.374-1.117-2.153-1.097-3.135.032-1.377 1.656-2.442 2.04-3.605.199-.593.104-1.432.314-2.192.44-1.591 1.495-2.532 1.256-4.859-.095-.926-.891-1.773-.943-2.975-.032-.824.543-1.282.472-2.038-.119-1.338-1.859-1.599-2.042-3.135-.182-1.586 1.519-2.895 2.513-4.7.448-.808.694-2.047 1.098-2.663.88-1.333 2.314-1.978 2.984-3.293.492-.969.651-2.405 1.099-3.133.578-.934 1.727-1.436 2.826-2.663.89-1 1.255-2.212 1.882-2.663.787-.569 1.966-.709 2.826-1.096 2.905-1.322 5.028-3.023 6.432-5.801-.428-2.52.216-3.584 1.256-5.325.958-1.611 1.661-3.15 3.297-4.077 1.962-1.108 3.805-1.21 5.176-3.288.685-1.04 1.716-2.837 1.728-3.917.016-1.551-1.593-3.537-2.981-3.763-1.418-.225-3.598 1.076-4.394-.468-.254-.493.095-1.649 0-2.195-.182-1.025-1.062-1.749-1.098-2.505-.075-1.471 1.449-3.003 1.882-4.7.587-2.311.02-4.08-.158-6.739 2.195-3.454 7.07-1.74 11.929-1.412.729.05 1.565-.175 2.354-.155 2.881.067 5.149.934 6.119-1.567.365-.942.689-4.443.472-5.329-.258-1.05-2.319-3.769-3.298-4.385-1.557-.99-3.816-.559-4.708-2.35.725-3.094 4.197-.519 6.278-1.254 1.062-.376.942-2.212 1.886-2.509.643-.202 1.462.645 2.354.628.761-.015 3.516-1.397 4.237-1.883 1.002-.677 1.311-2.081 2.196-2.663.598-.391 1.387-.344 2.041-.625 1.334-.574 3.024-1.74 3.923-2.821 1.296-1.551 1.879-3.475 3.452-3.76 2.105-.383 6.864.416 7.22-1.883.338-2.189-1.929-3.91-1.097-6.268.657-1.863 2.334-1.535 4.709-2.663 1.145.811.812 3.13.939 4.547 1.458.012 4.426-.431 4.708-1.726.352-1.614-2.125-3.256-2.668-4.23-.586-1.056-.713-2.911-1.883-3.133-2.389-.46-4.711 3.288-7.692 3.288-1.956 0-4.033-1.507-4.549-2.976-.294-.839-.027-1.63-.159-2.507-.19-1.283-.959-2.613-.625-4.386 1.2-2.057 3.97-2.389 5.964-3.45.753-.4 1.359-1.253 2.195-1.566 1.408-.519 3.488.003 4.866-.785.873-.493.627-1.348 1.258-2.35.391-.63 1.351-.996 1.882-1.72.369-.504.412-1.263.785-1.726 1.363-1.693 3.851-2.318 4.863-4.072.447-.775-.774-1.064-.467-2.195.506-1.093 2.463-.29 3.605-.472 1.562-.24 3.004-2.136 4.708-2.505 1.78-.383 3.686-.15 5.339-.782.987-.38 1.895-1.275 2.826-1.413.329-.047 1.256.178 1.723.158.599-.023 1.245-.392 2.041-.47 1.154-.115 2.584.28 4.083.312 2.481.056 4.838-.744 6.903.158 1.081.47.96 1.694 2.353 2.192.703.253 1.629-.099 2.669 0 1.536.147 3.141 1.207 5.179 1.413.725.07 1.474-.091 2.195 0 2.243.273 4.709 1.452 6.909 2.192 1.838.62 5.734 1.393 5.805 3.134.088 2.06-3.388 2.663-4.866 2.663-2.469 0-5.738-1.44-8.315-.626.04 3.546 3.871 6.229 7.376 5.798.307-1.667-1.983-.74-1.729-2.35 1.565-1.18 3.44.79 5.652.47.863-.233.717-1.48.939-2.35 1.866-1.133 4.204-2.794 7.063-1.568.142-.276.352-.486.63-.626.185-1.72-1.884-2.618-.786-4.232.548-1.113 3.473-.729 3.924.158.226 1.06-.725.945-.63 1.879.555 1.25 1.835 1.448 2.513 1.412 1.541-.082 1.846-1.46 3.298-2.195.585-.297 1.445-.329 2.195-.626.888-.352 1.641-1.064 2.354-1.253.523-.14 1.312 0 2.042-.158.926-.199 1.905-.943 2.667-.938.946 0 1.623 1.091 2.825 1.254.654.086 1.399-.372 2.354-.471.768-.084 1.564.09 2.196 0 1.499-.217 2.528-1.005 3.769-.941.875.047 2.377 1.226 2.979.628 1.015-1.005-1.354-1.753-.622-2.667 2.406.182 4.963.127 7.376.471 3.586.51 6.963 2.283 10.197 2.35-.305-2.176-2.802-1.551-3.924-2.504-.34-.293-1.743-2.588-1.723-3.292.007-.353 1.775-3.368 2.196-3.76 1.383-1.297 5.921-1.29 7.216.468.888 1.202.594 3.015 1.883 2.978 1.109-.03 1.7-2.753 2.983-2.821 1.062-.055 1.602 1.745 2.667 1.725 1.302-.027 2.205-2.444 3.925-2.508.928-.036 1.236.475 2.666.626.983-.63-.327-1.461.16-2.35 1.754-1.275 5.762-.306 8.001-1.098.626-.744-.797-1.27-.155-2.037 1.934-1.35 5.185-1.473 8.478-2.033 2.013-.345 3.911-1.741 5.488-1.884 1.65-.147 3.222.965 4.709.941.904-.015 1.954-.288 2.826-.625.883-.343 1.487-1.198 2.357-1.412 1.376-.337 3.116.162 4.708 0 1.685-.17 3.173-.823 4.392-.625 1.14.182 2.057 1.396 3.139 1.566 3.305.515 6.718-.495 9.73.313.538.147 1.081.704 1.728.943 2.016.735 3.391.505 3.768 2.974 1.585.563 2.516 2.015 4.392 2.509 1.252.328 2.513-.158 3.924-.158 1.853 0 4.227.07 5.804.313.902.138 1.642.8 2.514.94.634.104 1.474-.066 2.195 0 .983.092 1.867.496 2.667.472 1.646-.052 2.894-1.516 4.236-1.725.723-.11 1.682.257 2.355.313 2.644.222 5.691-.345 7.847.158 1.154.268 3.124 1.535 4.396 2.505.923.704 1.482 1.823 2.353 2.35.825.498 2.918 1.392 3.77 1.254 1.003-.158 1.045-1.274 2.036-1.722 3.116-.692 8.64.99 11.145-.158.97-.446.781-1.472 1.57-2.037 4.708-.23 9.4.194 13.811.313 1.551.043 3.151-.396 4.554-.155 1.553.27 2.686 1.825 4.232 2.35 1.031.349 2.846.167 4.396.471 1.041.202 1.895.827 2.666.938 1.677.238 3.279-.186 4.872-.312 3.599-.289 8.224-.48 11.77.942 1.888.755 2.679 2.283 4.704 2.504 2.902.32 7.392-.238 10.36 0 .709.06 1.372.352 1.883.312.995-.07 1.6-.914 2.826-.938 1.553-.035 4.026 2.418 6.282 2.038.97-.656-.782-1.57.149-2.196.885-.732 2.094-.007 3.456 0 .742.009 1.654-.375 2.354-.312 1.725.15 3.362 1.698 5.493 2.192 1.692.396 4.02.543 6.124.316 1.506-.166 2.797-.672 4.236-.47.694.095 1.312.597 2.037.784.67.169 1.324.007 1.884.153.523.143 1.042.633 1.572.785 2.917.833 6.802 1.245 9.889 2.195 1.814.557 3.67 1.682 5.178 1.72.743.026 1.403-.32 2.354-.311 4.741.032 10.318 2.002 9.882 6.426-5.549 1.214-10.19-3.815-16.008-2.35-.926.232-1.957 1.25-1.879 2.191.215 2.731 7.107 2.5 7.685 5.172-1.129.843-2.363.047-3.293.158-1.415.167-3.801 1.659-4.709 2.505-1.061.993-1.994 3.537-3.139 3.763-1.402.273-3.542-1.38-5.65-.941-.774.161-1.514 1.123-2.195 1.254-1.732.328-3.937-.943-5.018 1.096.57 1.432.222 3.427 1.41 4.23.765.522 1.724.118 2.667.47 1.103.412 1.712 1.754 2.664 2.509.781.614 1.612.629 2.044 1.408.099 1.155-.459 1.283-.316 2.038.246 1.314 2.303 1.612 2.354 2.506.071 1.131-1.296.89-1.565 2.037-.099.729.843.922.939 1.88.063.64-.519 1.309-.468 2.037.067 1.045.892 1.741.781 2.664-.091.79-.781 1.408-1.415 1.725-3.005-1.927-5.711-4.582-8.945-7.052-3.31-2.532-8.557-5.641-9.1-10.968-.019-.816 1.732-1.456 2.038-2.663.126-.495-.195-1.2-.155-1.88.112-1.84 1.634-3.608 1.574-4.7-.076-1.199-2.315-3.426-3.457-3.763-.911.478-.01 1.428-.158 2.196-.182.946-1.331 2.1-2.354 2.193-2.968.256-3.301-3.82-8.006-2.663-1.217.3-2.927 2.132-2.507 4.387.129.685 2.016 1.42 1.881 2.35-.131.902-4.277 1.168-5.18 1.097-2.533-.203-3.835-2.094-6.119-2.038-1.12.027-2.104.938-2.984 1.096-4.943.902-12.279-2.43-13.962 1.879-.243.61-.108 1.405-.317 2.038-.305.906-1.028 1.618-1.256 2.196-.192.483-.16 1.436-.472 2.193-.285.684-3.253 3.358-.627 4.075.627.167.919-.269 1.729-.158 1.346.182 3.59 2.342 5.175 2.35.947.004 2.259-1.064 2.981-1.096 1.455-.07 2.504.867 3.609 1.41 1.056.518 2.67 1.605 3.457 1.565 1.483-.074.773-1.1 2.196-1.566 2.715.803 3.986 3.675 6.59 5.955.943.823 2.339 1.532 3.611 2.663.71.633 2.892 2.33 2.984 3.134.083.748-.611 1.068-.789 1.724-.254.954.341 1.655-.313 2.35-2.504-.924-3.067-3.39-4.867-5.483-.665-.78-1.335-1.706-2.35-2.821-.46-.503-2.123-2.268-3.143-1.879-1.973.748 1.083 3.734 1.571 4.387 1.041 1.38 2.425 3.241 2.516 4.702.058.933-.61 2.63-.63 4.229-.012 1.08.273 2.06.157 2.975-.118.919-.771 1.968-1.1 2.98-.369 1.148-.452 2.521-.782 3.289-.609 1.412-2.663 3.074-4.086 3.133-1.303.055-1.861-1.002-3.138-.938-1.93.091-2.287 1.868-3.449 3.288.099 1.543.583 2.074.314 3.134-.424 1.663-2.739 1.951-2.668 3.605.064 1.531 2.116 1.829 3.136 2.509 1.403.93 3.852 3 5.183 4.701.872 1.116 2.132 3.2 2.042 4.384-.12 1.551-4.59 3.708-6.442 3.134-1.754-.542-1.152-2.216-1.565-3.759-.321-1.187-1.251-1.697-1.722-2.663-.252-.507-.137-1.31-.477-1.881-.946-1.594-2.6-.722-4.554-1.725-1.279-.655-.907-2.037-1.41-3.29-.674-1.687-3.519-2.483-5.803-2.035-1.68.323-2.203 1.734-3.769 2.035-2.303-1.362.472-4.722-2.354-5.015-2.163-.225-3.599 3.103-4.867 4.076-.855.653-2.408.788-2.508 1.722-.185 1.729 1.828 1.377 3.447 2.037 1.472.601 1.642 2.264 2.985 2.35 1.122.076 1.867-1.155 2.982-1.254 1.928-.17 3.495.697 4.706 1.412-.784 1.899-5.009 3.293-5.021 5.798-.007 1.451 1.685 1.702 2.984 2.662 1.094.811 2.537 3.102 4.079 4.701.666.689 1.743 1.144 2.045 1.568.725 1.037.61 2.298 1.406 2.979.136.858-.391 1.069-.312 1.879.388 1.128 2.125.914 2.513 2.039-.322 2.702.804 5.246-1.412 6.267-1.022 4.847-2.175 8.638-5.493 11.281-2.984 2.37-6.923 3.071-10.518 4.23-.932.3-1.677 1.282-2.509 1.566-2.088.709-5.806.278-5.96 2.822-.088 1.255 1.593 2.011 1.724 3.289.198 1.963-1.561 3.936-2.827 4.075-.91.098-2.875-.535-2.984-2.196-.123-1.867 2.322-2.632 2.514-3.759.333-1.995-1.725-3.937-4.079-3.759-2.073.154-6.788 4.309-6.903 6.58-.091 1.697 3.367 5.231 4.549 6.268 4.408 3.878 9.088 6.204 8.314 15.669-1.1 2.397-3.915 2.909-6.117 4.23-1.678 1.005-2.514 4.123-5.338 4.389-1.135-.389-.474-2.158-.786-2.976-.428-1.123-2.676-1.674-4.078-2.822-1.15-.942-1.633-2.425-2.513-3.292-1.098-1.08-2.739-1.305-4.082-2.037-.844-.46-1.502-2.074-2.354-2.034-1.384.055-.904 1.385-1.252 3.601-.349 2.18-1.943 3.853-1.415 6.425.221 1.053 1.538 1.904 2.194 2.975 1.091 1.778 1.242 3.848 2.356 4.86.736.669 1.989.815 2.825 1.409 1.664 1.187 4.593 3.759 5.181 5.173.68 1.649.022 3.591.471 5.328.523 2.006 3.151 3.443 1.573 5.485-1.502-.278-2.813-1.259-4.086-2.038-2.156-1.333-3.147-2.482-4.55-4.701-.412-.649-1.022-1.282-1.256-1.879-.547-1.405-.429-2.996-.94-4.701-.44-1.468-2.143-3.788-3.456-5.018-1.1-1.036-3.055-1.641-3.138-3.132-.115-2.102.713-4.575.63-7.053-.02-.534-.384-1.072-.468-1.721-.166-1.203.119-2.675-.162-3.764-.258-1-.987-1.902-1.411-2.816-.42-.903-.848-1.808-1.252-2.98-.638-1.812-1.353-5.306-2.827-5.484-1.573-.189-3.127 2.944-5.178 2.979-1.054.017-2.458-.827-2.668-1.884-.198-.961.495-1.93.471-2.974-.059-2.101-1.553-2.913-2.67-4.389-.453-.596-.571-1.436-.945-1.88-.712-.85-2.076-1.325-2.979-2.191-.86-.831-1.804-2.027-2.199-2.821-.607-1.227-.802-2.818-1.725-2.98-.883-.155-1.905 1.111-2.825 1.413-.957.311-3.306.716-4.238.783-3.15.217-5.706-.622-5.335 3.134-.49 1.685-2.273 1.705-3.455 2.505-1.502 1.02-2.595 3.066-4.235 4.7-.798.8-1.951 1.298-2.668 2.038-.6.617-.785 1.607-1.415 2.196-1.673 1.579-4.186 1.714-5.331 3.917-.066 2.604 1.233 4.574.939 7.047-.134 1.128-.979 2.13-1.1 3.293-.099.997.411 2.069.161 3.134-.138.569-.772.869-1.259 1.566-.437.625-.612 1.456-.935 1.88-.531.676-1.399 1.147-1.891 1.726-.796.941-.964 1.613-1.725 1.724-3.439.495-4.287-6.037-5.805-8.776-.703-1.258-2.128-2.394-2.826-3.917-.805-1.756-1.051-3.961-2.199-5.955-.976-1.702-2.323-3.407-2.981-5.173-.56-1.491-1.042-3.358-1.568-5.013-.56-1.749-1.166-3.949-1.257-5.325-.131-2.035.392-3.289-1.257-4.076-1.513.356-2.187 1.879-3.924 1.879-1.673 0-6.171-2.895-4.859-5.484-1.098-1.551-3.86-2.401-5.967-4.229-1.206-1.049-2.296-3.547-4.392-3.759-.579-.059-1.332.264-1.886.313-1.328.114-3.682-.12-5.181 0-1.882.15-4.208.572-6.591.311-1.534-.166-3.439-.463-5.021-.624-2.008-.207-4.681-.682-5.802-1.726-.697-.641-.978-2.695-2.204-2.976-1.453-.336-2.254.788-3.606 1.096-2.877.658-5.278-.588-7.222-1.879-1.378-.914-2.635-1.389-3.608-2.037-2.386-1.596-2.814-6.392-6.438-6.427-1.259-.012-3.264.776-3.451 2.197-.123.996 1.192 2.848 1.728 3.604 1.76 2.477 4.993 3.407 5.964 6.735.651.253 1.974-.57 2.667.158.608 1.428-.008 4.08 1.412 4.701 6.523 1.076 8.385-2.493 11.303-5.014 1.691 1.105 1.133 2.07 1.723 3.288.602 1.25 1.546 2.232 2.668 2.667.787.301 1.799.02 2.984.468.742.281 3.835 3.205 3.927 4.234.079.921-2.033 4.059-2.674 4.855-.622.776-1.585 1.178-1.883 1.879-.222.542-.151 1.693-.314 2.038-.288.625-1.698 1.44-2.512 2.192-.857.799-1.855 1.421-2.668 2.037-.991.761-1.605 1.805-2.667 2.197-2.088.767-4.074.439-5.805 1.567-1.135.736-1.138 2.397-2.509 3.288-1.434.93-3.888.938-5.969 1.884-1.334.604-2.136 1.779-3.29 2.191-.472.167-1.062.024-1.572.159-1.043.264-2.007 1.005-2.984 1.25-.774.198-1.593.1-2.355.317-2.417.697-4.632 3.15-7.062 1.721-1.146-2.64-1.332-5.963-2.667-8.305-.682-1.195-2.022-1.564-2.509-2.818-.067-1.009 1.15-.732 1.253-1.567-.4-1.694-2.002-2.485-2.981-3.921-.48-.7-.7-1.698-1.256-2.505-1.872-2.719-5.561-4.131-6.279-7.522-.194-.922.032-1.646-.154-2.35-.309-1.16-1.094-2.378-1.885-3.289-.6-.696-1.824-1.17-2.51-2.195-.456-.677-.555-1.631-.943-2.351-1.561-2.908-3.821-5.477-6.278-7.521-1.279.185-2.655.272-3.293 1.099.638 2.05 1.617 3.766 2.668 5.485.959 1.562 2.322 3.247 2.979 5.013.246.652.203 1.507.472 2.192.987 2.485 4.09 3.249 4.708 6.113.418 1.919-.091 3.249.472 5.168.54 1.843 3.265 2.932 4.396 4.7.919 1.444.927 3.486 1.568 4.86.939 2.01 3.566 2.88 5.493 4.23 1.729 1.214 2.966 3.086 4.391 4.388.84.76 1.994.898 2.199 1.725.266 1.061-.446 1.416-.629 2.347 1.205 1.254 2.377 3.569 4.395 3.762.83.079 1.875-.756 3.14-.942.637-.091 1.35.1 1.882 0 .836-.15 1.564-.894 2.516-1.096 1.602-.344 3.459-.206 5.489-.47 1.919-.251 3.239-1.868 4.709-1.409 1.612 1.769.456 3.776 0 5.484-.159.602-.16 1.223-.31 1.726-.848 2.789-3.067 4.855-4.085 7.363-.314.768-.259 1.71-.623 2.505-1.169 2.512-3.606 4.99-5.497 7.052-1.066 1.159-2.005 2.207-3.139 3.133-1.125.925-2.501 1.429-3.769 2.35-2.512 1.837-5.128 4.468-6.904 6.897-.686.942-1.013 2.026-1.728 2.822-1.022 1.139-2.603 1.702-3.451 2.821-.67.882-1.115 2.481-1.883 4.072-.863 1.792-2.668 3.003-2.353 5.484.118.949.97 1.54 1.256 2.509.486 1.669.114 3.074-.16 4.854.889 2.149 1.527 4.54 3.14 5.956.194 3.17-.262 6.247 0 8.93.166 1.709.832 2.968.158 4.544-.594 1.387-2.873 3.83-4.237 4.699-1.482.955-3.748 1.203-5.338 2.356-1.105.798-2.02 2.199-3.139 3.137-1.85 1.54-4.386 2.979-4.55 4.542-.094.899.711 2.26.939 3.131.614 2.314 1.209 5.642.16 8.146-1.139 2.712-6.891 2.149-7.533 5.013-.196.872.383 1.568.312 2.51-.056.798-1.106 3.68-1.57 4.542-.693 1.298-2.27 1.879-3.293 2.98-1.285 1.389-1.935 3.399-3.298 4.855-1.85 1.985-4.352 4.079-6.748 5.797-2.085 1.504-5.827 3.063-9.1 3.292-1.905.134-3.951-.448-5.964-.155-.737.103-1.538.779-2.512.939-.567.091-1.146-.099-1.725 0-.986.165-1.91.949-2.826.941-2.033-.024-4.645-2.445-4.707-4.856-.024-.93.797-1.812.784-2.667-.016-1-1.245-2.255-2.199-4.074-.916-1.749-1.277-3.732-2.197-5.165-.973-1.527-2.261-2.252-2.979-3.451-1.447-2.409-1.554-5.262-2.041-8.151-.158-.941-.804-1.963-.944-3.134-.17-1.44.175-3.038-.155-4.229-.253-.918-1.271-1.851-1.885-2.979-1.106-2.031-1.883-4.686-2.823-6.265-.883-1.48-2.666-3.022-2.825-4.699-.108-1.141.143-3.266.313-4.389.17-1.1.987-1.971 1.256-3.13.179-.772-.035-1.657.155-2.508.8-3.586 4.755-4.89 4.24-9.247-.222-1.848-1.53-2.76-1.727-4.86-.091-.982.49-1.843.472-2.821-.029-1.322-1.15-3.288-1.729-4.543-1.589-3.458-2.564-6.619-4.862-9.244-1.253-1.431-2.894-2.441-3.924-3.763-.844-1.074-1.87-3.09-1.887-3.916-.016-.895.69-1.452.943-2.351.329-1.155.354-3.343.786-5.172.197-.838 1.106-2.868.942-4.229-.158-1.311-2.112-3.823-3.768-4.23-2.192-.542-4.447.7-7.217.47-2.386-1.507-2.208-5.453-5.652-5.955zm37.353-153.246c.183 2.627-4.022 2.299-4.553 4.546-.239 1.017.491 2.374.317 3.288-.322 1.647-1.915 1.168-3.925 2.039-1.025.443-2.02 2.072-3.138 2.192-1.034.11-1.664-.603-2.354-.467-1.03.194-.686 1.455-2.199 1.72-1.205.211-3.314-1.075-3.452.472-.092.993 1.894 1.53 3.139 1.408.986-.095 1.708-.771 2.666-.783 1.859-.017 3.068 1.377 4.237 1.412 2.695.076 5.338-2.484 8.164-2.195 1.276.13 2.033 1.032 2.981.941 1.513-.143 2.801-1.887 3.924-2.508-.476-2.64.042-6.121 2.512-6.268 1.696-.1 4.24 2.896 4.549 0 .135-1.258-1.339-2.37-2.354-2.351-.903.02-2.089 1.785-2.826.317.005-1.437 1.617-1.057 2.513-1.413.666-.265 1.138-.989 1.883-1.254 3.733-1.31 8.909 1.286 10.358-1.88-3.312-2.82-8.952 1.03-12.713.784-1.604-.103-3.721-1.294-4.236-2.822-.162-.482-.027-1.131-.158-2.033-.144-1-.663-2.05-.626-2.667.158-2.83 7.216-3.364 7.216-6.892-1.347-1.291-5.299-1.073-6.59.311-.464.499-.44 1.507-1.098 2.51-1.408 2.14-5.953 2.394-7.375 5.012-.317.582-.869 2.173-.631 3.134.373 1.485 3.662 1.888 3.769 3.447zM163.065 187.756c1.24-.202.88-3.047-.626-2.355-1.138.527-.547 2.54.626 2.355zM115.983 27.612c1.003-.17 2.032.281 2.671-.624-.749-3.451-5.529-1.342-8.319-1.098-.587.982-1.371 1.766-1.569 3.135 2.164.545 4.776-.998 7.217-1.413zm.784 11.285c.892-.309 2.13-.15 2.354-1.1-.733-.586-1.485-1.377-2.354-1.409-1.136-.039-1.684.966-2.826 1.567-1.327.7-3.166.87-3.293 2.039 2.43.474 4.617-.583 6.119-1.097zm28.096-16.14c.523-.336 1.323-.791.939-1.567-1.733-.811-4.662-.194-7.218-.47-1.45-2.047-3.875-2.363-4.081.941 2.921 2.367 7.343-1.104 10.36 1.096zM204.5 10.692c-.202-.217-.74-.217-.944 0v.625c.666.143.789-.256.944-.625zm18.048 15.353c.773.096 1.209-.15 1.098-.937-.698-.49-1.716.154-1.098.937zM57.602 50.65c.035-.297-.179-.348-.155-.629-.48-.003-1.034-.09-.943.472.226.45.832.53 1.098.157zM123.989 181.8c.079-.234.229-.395.312-.628-.475-1.56-1.981.569-.312.628zm8.473-117.52c1.751-.063 2.937-5.23 0-4.546-1.966.46-2.442 4.634 0 4.547zm19.617 17.55c-.65-.764-4.169.09-5.179.783-.695.479-1.166 1.647-1.882 2.509-.742.89-1.57 1.579-2.197 2.35-.566.697-3.745 5.274-1.256 5.797 1.062.221 3.246-1.979 3.453-2.82.708-2.874 2.005-4.923 4.236-6.27 1.291-.779 2.615-.68 2.825-2.349zm2.199-2.51c3.128-1.328-.617-5.423-2.04-5.797-2.544-.663-6.163 1.864-9.103 2.665-1.658.45-3.234.49-3.611 1.882 1.486 2.454 4.423-.537 6.59-.158 1.099.194 1.74 1.694 2.826 1.88.742.126 5.041-.345 5.338-.471zm6.905 11.911c-2.231-.791-4.292.539-6.119.783-1.09.147-3.076-.22-2.826 1.41.202 1.329 2.259.846 3.453.47 2.48-.784 4.045-1.456 5.492-2.663zm2.195-6.267c1.233-.97.686-2.948-.626-3.292-.515-.136-1.2.38-2.041.316-.887-.068-1.775-.878-2.509-.942-1.252-.107-2.524.51-2.984 1.096-.048.938.69 1.088.63 2.037-1.526 1.09-.717 4.73.785 4.86 1.594.138 2.417-4.023 4.55-4.388.772-.135 1.168.439 2.195.313zm8.164 2.663c-.654-.637-2.785-.456-4.24-.313-1.027.103-2.247.321-2.354 1.096 1.632.747 6.083 1.286 6.594-.783zM61.997 73.37c.74-.76-.313-2.367-1.414-1.726-.108.574.2 1.96 1.414 1.726zm169.65 4.072c-.732-.183-1.73-.147-2.666-.313-.801-.143-1.752-.38-2.509-.471-1.937-.23-4.035.333-5.181-.783 1.868-2.478 4.348-4.92 6.751-7.052.712-.637 2.246-1.072 1.882-2.35-1.336-1.172-2.976.072-4.237.783-1.324.744-2.901 1.816-4.396 2.038-2.595.384-6.038-.76-8.159.625-.294 1.183 2.413.725 2.038 2.508-1.04.172-2.022.254-2.824-.47-.728-.656-.312-1.642-.784-2.038-.804-.664-3.828-.847-5.18-.625-1.649.27-3.106 1.254-3.296 2.663 1.981.926 5.247-.954 5.964 1.413-1.086 1.95-3.642 3.023-3.298 5.639.136 1.009 1.336 2.357 2.2 2.508.867.15 1.356-.708 2.195-.629.889.083.686 1.096 1.729.942 1.51-.646 2.345-2.763 4.078-2.664 2.076 2.517-1.875 3.744-4.078 4.543-2.513.91-5.779 1.393-7.694 2.196-1.002.42-4.799 4.084-5.333 1.25-.385-2.041 1.878-1.451 2.355-3.134-2.431-.47-4.694 1.045-6.905 1.884-3.154 1.192-8.501 1.947-9.261 5.484-.152.709.308 2.034-.155 2.505-.377.38-2.628.447-3.612.783-1.513.519-2.833 1.626-3.768 1.88-.705.194-1.747.139-2.196.317-1.248.483-1.708 2.168-3.139 3.288-.586.459-1.887.791-2.354 1.254-.811.808-.919 2.83-2.354 3.133-.911.08-1.652-.684-2.512-.157-.103 1.998.705 4.717-.155 6.739-1.858 1.51-3.899 2.583-6.278 3.916-1.315.74-2.492.931-4.082 1.725-1.125.563-2.155 1.901-3.451 2.664-2.997 1.76-6.615 3.846-6.591 8.306.005.966.504 2.006.627 3.134.074.664-.081 1.313 0 2.037.185 1.638 1.374 3.724 0 4.855-2.114-.867-4.8-1.16-6.279-2.662-.404-1.548.816-2.821.631-4.23-.151-1.133-1.744-3.146-2.671-3.293-.956-.151-1.836.862-2.823.783-1.172-.091-2.263-1.705-3.768-1.879-2.208-.257-3.833.502-6.278.159-2.367 1.262-3.06 3.509-5.96 3.287-1.023-.074-1.958-.853-3.14-1.096-1.279-.265-3.222-.715-4.554-.624-2.67.177-4.608 2.096-6.903 3.288-2.025 1.052-4.89 2.362-5.493 4.546-.329 1.176-.05 2.829-.472 3.918-.277.715-.884 1.353-1.256 2.033-1.76 3.209-3.218 7.451-1.882 12.069.198.684 1.946 4.546 2.666 5.326.81.866 3.191 2.167 4.551 2.192 1.148.024 2.497-.582 3.61-.784 1.291-.229 2.91-.249 4.082-.625 3.392-1.084 2.723-5.666 6.119-7.21 1.482-.668 3.198-.803 5.806-.937.828.696 1.216 1.915 1.102 2.976-.088.799-.847 1.523-1.257 2.663-.356 1.001-.431 2.172-.784 2.978-.467 1.057-1.51 1.828-1.883 2.822-.245.645-.111 1.449-.312 2.033-.361 1.034-1.744 1.761-1.103 2.822 3.362 1.334 7.428-.379 10.36.158 1.237.227 3.789 1.702 3.765 3.606-.015 1.424-1.101 2.358-1.256 3.917-.19 1.963-1.01 4.365-1.098 5.951-.138 2.599 3.821 7.087 6.591 7.05 2.984-.038 4.724-2.963 8.319-1.407 1.192.513 2.452 2.444 3.769 2.35 1.086-.079 2.726-1.978 3.451-3.293.884-1.602.948-2.951 2.509-3.759 1.684-.87 3.025-.451 5.18-1.254.963-.357 1.8-.97 2.667-1.567.761-.522 1.562-1.891 2.513-.941 1.252 1.25-1.533 1.954-.472 3.291 2.176 1.153 3.289-2.14 4.867-2.192.503-.015 2.243.978 3.139 1.567 1.225.803 1.641 1.931 2.98 2.193.86.17 2.243-.329 3.452-.158 1.601.228 2.556 1.602 3.768 1.566 1.48-.039 2.189-1.646 3.453-1.88 2.77-.505 3.801.309 5.021 2.038 1.368.238 1.415-1.579 2.668-.937-.686 1.365.233 1.994.784 3.134.357.731.297 1.249.63 1.567.749.711 2.196.711 3.293 1.409 1.158.728 1.811 2.081 3.14 3.604 1.367 1.559 3.665 3.174 5.492 3.288 1.724.111 3.127-.487 4.554-.313 3.246.401 5.264 2.019 7.534 3.764 1.269.972 2.414 1.65 2.822 2.817.285.815.147 1.907.472 2.822.693 1.95 3.542 2.892 2.512 6.268.471.987 1.53 1.344 2.668 2.036.91.559 1.679 1.722 2.667 1.88.637.103 1.332-.19 1.882-.158 1.784.126 3.008.816 4.554 1.412.959.369 2.188.515 2.826.946.796.534.9 2.339 1.882 2.815.642.31 2.069-.12 3.139 0 1.684.197 3.971 1.226 5.492 1.257.924.019 1.689-.38 2.509-.316 3.844.296 6.024 4.887 9.734 6.267 1.149.431 2.972.132 3.765.472 1.391.601 2.564 4.85 2.667 6.734.317 5.694-4.062 7.521-6.591 11.284-.527.788-.82 2.035-1.569 3.134-1.506 2.212-3.182 2.672-2.98 6.738.055 1.117.626 2.205.626 3.447 0 1.517-.132 3.498-.472 4.859-.257 1.038-1.117 1.879-1.255 2.822-.14.954.281 1.694.158 2.508-.136.903-1.038 2.177-1.728 3.443-1.451 2.675-1.768 5.82-4.709 6.893-1.727.633-4.07.28-5.96.941-.765.27-1.732.974-2.671 1.409-2.73 1.271-6.623 2.984-7.376 5.797-.67 2.509.935 4.507.471 7.367-.487.852-1.145 1.703-1.882 2.664-.677.89-1.015 1.934-1.728 2.821-.944 1.18-2.409 1.702-2.979 3.293-.196.538-.073 1.178-.314 2.033-.091.317-.669.807-.944 1.409-.253.558-.241 1.271-.471 1.728-.716 1.446-2.85 4.733-4.395 5.172-3.258.91-6.694-1.381-8.945-.946.325 1.572 1.467 1.409 2.2 2.509.427.65.661 1.508 1.253 2.193.705.815 1.327 1.115 1.413 2.037.179 1.931-1.327 3.874-2.354 4.546-.939.614-2.889.973-4.554 1.252-1.16.194-4.156.205-4.707.945-.808 1.089.428 3.775-.154 4.855-1.174 2.291-4.328-.063-5.965.625-.139 1.183.297 2.423 1.256 2.976.986.577 2.485-.174 3.139.942-.322 1.559-2.001 1.76-2.355 3.292.045 1.496.504 1.887.315 2.817-.41 2.014-3.544 1.931-3.453 4.076.135 3.209 6.166 1.894 6.277 5.017.063 1.892-1.728 1.912-2.354 3.755-.337.989.194 1.219 0 2.038-.261 1.112-1.569 1.432-1.569 2.663-.004 1.5 2.195 3.149 3.293 4.388 1.074 1.216 2.453 2.947 3.923 3.763 2.205 1.214 5.485.942 6.438 3.133-.302 1.319-1.575 1.671-2.826 2.035h-.314c-.423-.256-1.93-.256-2.354 0h-2.196c-2.1-.966-4.649-1.591-7.22-2.505-.928-.328-1.973-1.112-2.981-1.562-.756-.346-1.609-.48-2.199-.788-1.352-.707-2.873-3.003-4.237-3.914-.828-.557-2.128-.851-2.668-1.416-.514-.535-.796-1.693-1.256-2.346-.506-.721-1.438-1.246-2.04-2.039-1.304-1.729-2.969-4.055-2.981-5.33-.012-1.254 1.197-2.104.784-3.284-.383-1.113-2.792-.87-3.138-2.199-.21-.801.693-2.149.626-3.286-.036-.66-1.272-1.559-.784-2.512.563-1.097 1.625.091 2.512-.467-.665-2.263.052-5.903-2.199-6.584-1.158.973 1.181 3.162-.785 3.764-1.898-.844-1.458-3.339-1.882-5.172-.277-1.212-.88-2.299-.939-3.604-.032-.685.269-1.48.153-2.189-.332-2.113-2.686-3.843-2.826-5.959-.062-1.02.627-1.884.786-2.976.111-.739-.103-1.571 0-2.35.138-.997.689-1.911.784-2.821.187-1.721-.003-4.674-.312-6.114-.389-1.809-1.828-3.347-2.042-5.322-.075-.716.238-1.908.159-2.822-.075-.851-.543-1.693-.626-2.668-.079-.892.222-1.743.313-2.82.166-1.965-.385-4.158-.313-6.113.019-.574.321-1.001.313-1.563-.02-1.617-.559-3.248-.63-4.859-.123-2.975.329-5.084-.155-7.834-.364-2.081-.816-5.271-1.57-6.577-.839-1.46-4.141-3.938-5.805-4.863-1.099-.609-2.414-.818-3.61-1.409-2.556-1.25-7.511-3.897-8.633-6.421-.324-.733-.281-1.699-.629-2.509-.683-1.608-2.121-2.996-3.139-4.547-1.938-2.956-3.504-6.662-5.494-9.714-1.006-1.55-1.878-3.308-2.98-4.542-.646-.728-2.715-1.409-2.98-2.509-.353-1.448-1.427-3.438-1.256-4.542.226-1.5 3.143-2.712 3.138-4.073-.004-1.163-1.557-1.838-1.882-2.82-.793-2.397.464-3.804 1.411-5.802.312-.653.618-1.708.943-2.192.575-.862 1.743-1.104 2.509-2.037.428-.522.698-1.611 1.256-2.351 1.193-1.583 3.119-2.176 3.611-3.605.4-1.163.634-6.983.154-8.931-.273-1.124-1.324-2.064-1.723-3.134-.71-1.891-.877-3.956-2.826-3.916-1.206.024-2.054 1.353-2.826 2.192-.186 1.116-.088 2.323-1.256 2.663-1.784.527-2.47-1.877-4.551-2.505-.828-.253-2.147-.237-2.667-.47-1.518-.681-2.009-2.902-3.61-3.764-1.339-.717-2.486-.466-3.297-1.567-.337-.755-.072-2.121-.155-3.134-1.72-1.004-3.178-4.751-5.18-5.638-1.327-.59-3.36-.534-5.021-1.096-.781-.265-1.383-.606-2.2-.783-1.007-.226-2.042-.238-2.821-.63-3.108-1.54-4.784-6.528-8.633-6.422-1.64.044-3.22 1.574-4.707 1.567-1.48-.008-3.956-1.178-5.81-2.037-1.926-.895-4.058-1.382-5.648-2.193-1.284-.657-2.175-1.855-3.298-2.354-.86-.38-2.116-.447-2.822-.779-1.002-.475-2.047-1.488-3.296-2.355-1.186-.819-2.466-2.069-2.513-3.13-.052-1.227 1.13-2.271 1.256-3.451.405-3.73-2.35-6.414-4.082-8.617-1.283-1.638-2.79-3.027-4.078-4.542.072-1.005.072-1.189 0-2.194-.975-.944-1.795-2.345-2.825-3.762-.932-1.278-2.748-2.64-2.98-4.072-.29-1.76.669-3.307 0-5.017-1.119-2.837-5.062-1.556-4.555 2.195.143 1.034 1.602 2.423 2.042 3.448.45 1.044.364 2.346.784 3.604.405 1.207 1.622 2.247 2.042 3.604.664 2.145.645 4.456 1.255 5.798.54 1.19 2.525 2.318 1.412 3.759-1.487.308-2.058-1.175-2.98-2.038-.517-.479-2.383-1.389-2.668-2.505-.238-.921.587-2.164.313-3.292-.54-2.212-5.01-2.267-5.026-4.543-.008-1.428 1.871-1.598 1.887-2.98.012-1.51-2.065-2.788-2.513-4.07-.408-1.176-.475-3.047-.625-4.702-.148-1.551.043-3.347-.318-4.546-.32-1.076-1.942-2.556-2.98-3.134-1.376-.763-2.465-.446-3.139-1.566-.587-.978-.97-3.02-1.098-4.072-.226-1.884-.051-3.945-.159-5.956-.102-2.013-.308-3.944 0-6.11.777-1.514 2.192-2.263 2.985-3.762.551-1.044.63-2.335 1.252-3.446 1.15-2.046 3.654-3.937 5.339-5.956 1.814-2.172 3.487-4.252 4.55-6.738.38-.883 1.403-2.837 1.255-3.918-.206-1.507-3.05-2.75-2.826-4.542.143-1.112 1.729-1.096 2.2-2.192.243-.565.46-2.144.473-2.821.023-1.512-.778-3.087-.472-4.7.257-1.379 2.31-1.936 1.256-3.447-1.047-1.496-2.925.807-4.082-.16-1.062-.89.214-1.965.313-3.603.04-.654-.38-1.398-.313-1.88.094-.7 1.463-1.88 1.097-2.35-.848-1.073-1.799-3.795-3.61-4.701-2.302-1.155-4.795-.376-8-.941-1.967-.345-2.898-2.18-4.71-2.035-1.117.087-1.76 1.365-3.297 2.035-1.522.663-3.511.438-5.021.783-1.498.345-2.22 1.377-3.77 1.254-1.291-.1-1.3-1.263-2.82-1.41-.596-.058-1.721.37-2.668.472-2.426.253-6.805.376-9.263-.158-2.246-.487-3.633-1.2-6.119-2.35-1.866-.864-5.33-1.928-5.18-3.293.096-.879 3.283-1.808 4.55-2.192C6.6 34.984 7.86 33.98 9.422 33.88c.603-.036 1.395.372 2.196.316.805-.059 1.795-.798 2.826-.941 2.191-.305 5.282.111 5.02-2.037-1.663-1.315-8.453.972-8.63-1.88-.108-1.726 2.575-2.248 4.553-2.664 1.8-.38 4.53-1.021 6.12-.94 1.791.09 4.148 2.092 5.179-.157.499-1.596-.61-2.938-.944-4.232 1.333-1.837 3.785-1.608 5.652-1.88 2.132-.313 3.872-.692 5.964-1.566 1.836-.77 3.785-1.283 5.961-1.568 2.133-.276 4.201-1.08 6.123-1.254 1.582-.143 3.032-.016 4.55-.313 1.343-.26 2.763-1.005 4.241-.938.987.044 1.831.765 2.821.938.931.163 1.998-.047 2.985.159.757.158 1.438.668 2.195.782 1.19.179 2.465-.165 3.61 0 1.055.152 1.95.808 2.981.94 2.418.311 5.183-.128 7.534.315.891.166 1.696.605 2.667.784.92.166 1.93-.024 2.826.155 1.248.249 2.291 1.427 3.61 1.567 2.43.252 5.156-1.054 7.689-1.256 1.834-.141 3.726.076 5.651-.311 1.752-.354 3.448-1.03 5.022-1.096.856-.037 1.573.26 2.353.157.813-.11 1.789-1.083 2.668-.942 1.168.187.963 1.662 2.2 2.039 1.367-.709 2.73.047 4.236 0 1.467-.052 2.778-.724 4.395-.471 2.857.447 6.849 3.24 9.1 1.724.567-.383.432-1.044.943-2.037.694-1.35 2.06-2.936 1.728-4.859-3.146.05-6.151 1.586-9.734 1.724-3.618-2.262.968-3.667 3.61-4.7 2.18-.854 3.905-2.75 6.596-3.133 2.195-.317 4.608.483 7.217.783 1.521.175 3.043-.107 3.923.154 1.541.463 2.334 1.987 3.61 2.35.551.159 1.455.142 2.197.317 1.41.325 2.674 1.069 4.081 0 1.106.197 1.236 1.372 2.355 1.567 1.042-.562 1.846-1.99 3.451-2.35.698-.158 1.43.118 2.196 0 1.28-.205 2.984-1.935 3.768-.316-.32 1.131-2.033 1.301-2.984 2.195-.843.795-2.143 2.62-2.037 3.447.187 1.494 2.43.917 2.509 2.82-.334 1.097-1.609.607-2.667 1.097-.967.447-1.328 1.373-2.354 1.567-2.853.537-5.22-.716-7.689-.626-.115 1.069 1.221 1.691 1.882 2.035 2.239 1.175 4.063 1.012 7.218.942 1.617-.037 3.475.482 4.866-.472.88-.601.833-1.927 1.57-2.663.887-.881 2.932-1.78 4.237-1.566.713.119 1.715.966 1.727 1.566.025 1.425-2.017.97-2.041 2.51 1.329.794 4.836-.871 5.022-2.196.134-.966-1.142-1.525-1.098-2.506.076-1.642 2.31-1.614 2.042-3.292-1.079-.846-2.204.182-3.298 0-1.543-.257-2.929-2.1-3.612-3.292.683-.842 2.109-.281 3.14-.154 1.153-1.595 3.301-2.217 6.278-2.51 1.058-.102 2.468-.521 2.984.472.254 1.484-2.199 2.375-1.729 4.075 2.113.527 2.806-2.318 4.554-3.45.769-.499 1.871-.83 2.98-1.25.968-.369 2.035-1.279 2.826-1.254.868.023 1.023.736 1.883 1.096.772.323 1.784-.222 2.042.783-1.82 3.146-8.601 1.337-10.361 4.542.393 2.15-1.062 4.198.158 5.643.873 1.03 2.838.328 3.295 1.409.614 1.444-1.903 1.444-1.253 3.134 1.661.993 3.639-.946 5.176-1.722 1.648-.835 3.733-1.82 3.923-3.763-.828-1.59-3.919-.36-4.391-2.033-.257-.91.947-2.95 1.253-3.293 1.637-1.832 7.351-4.44 11.457-4.074.78.07 1.569.544 2.354.628 2.699.276 5.886-1.163 8.005 0 1.705-.993 3.75.135 6.119-.158 1.828 1.076 1.324 3.367 4.084 4.387.748.278 1.684.08 2.667.313.729.175 1.517 1.029 2.353 1.413 1.19.538 2.1.415 2.355 1.25.249.82-.865 1.35-.786 2.197.678.557.111 1.396.472 2.192.678 1.451 2.386 1.345 4.078 2.038 1.19.486 3.726 1.977 3.611 3.133-.076.776-2.382 2.137-3.138 2.509-.536.26-3.183 1.539-4.079 1.409-1.482-.218-2.06-3.214-4.082-3.135-.88.036-1.708.566-1.728 1.726-.032 2.057 2.307 2.136 2.354 3.917.064 2.13-1.165 2.276-2.98 3.6-1.3-.526-2.394-1.265-4.082-1.408-1.003 1.192 1.649 1.618.784 3.134-2.52.534-4.442-.712-6.745-1.408-.721-.218-1.759-.132-2.354-.472-.892-.514-1.154-2.037-1.886-2.821-.848-.91-2.541-2.2-3.925-2.192-1.937.005-4.743 2.41-6.277.155 1.063-3.59 6.095-.926 9.417-2.192 1.236-.472 1.66-1.778 2.671-2.352 2.029-1.155 5.327-1.317 5.021-3.603-.154-1.152-1.767-1.136-2.667-1.725-1.228-.8-2.167-3.621-3.923-3.76-.904-.071-1.554.693-2.513.784-2.029.19-4.288-.815-6.119 0-.852.486-.277 1.266-.943 2.192-.547.759-1.839.973-2.354 1.725-.603.882-.48 1.978-1.257 2.663-1.289 1.14-4.014 1.322-5.647 1.88-.729.248-1.649 1.103-2.354 1.1-1.297-.009-1.852-1.741-3.298-1.1-.127 1.677 1.775 2.358 2.981 3.133 1.303.839 2.674 1.674 3.139 3.134-1.278 2.706-3.313-.142-5.336-.154-2.226-.017-5.477 4.234-7.375.783.472-1.828 2.489-2.113 2.981-3.917-2.216.376-4.146 2.24-6.75 2.821-1.094.241-2.16.182-3.139.467-1.878.55-3.189 1.935-5.175 2.667-.777.285-1.705.198-2.512.467-1.895.633-4.166 1.764-6.119 2.821-1.998 1.08-4.254 2.216-5.494 3.292-.67.577-2.414 2.636-2.355 3.289.08.934 1.84 1.242 1.883 2.195-.04.578-1.018 1.825-.313 2.663.642.764 1.93.147 3.294.313 2.398.297 3.966 2.275 5.806 3.293 1.391.766 3.456 1.68 5.026 1.879 2.155.27 4.569-.63 4.861 1.096.287 1.658-2.028 2.25-2.195 3.293 1.161 1.53-.789 2.262-.784 3.604.003 1.088 1.339 2.719 2.509 2.817 1.581.134 3.895-1.555 4.554-3.134.78-1.88.447-4.427 1.882-5.797 7.311.202 13.498-3.315 13.026-10.81-.047-.74-.467-1.693-.313-2.508.229-1.212 2.315-2.229 2.038-3.76 2.049-.629 1.961-3.91 4.081-4.388 1.777-.399 3.785 1.254 6.119 1.096.762-.05 1.748-.732 2.513-.625 1.533.213 2.457 2.101 3.611 2.977 1.018.778 2.092.53 2.353 1.566-.305 1.757-1.541 1.8-1.414 3.446.116 1.436 1.608 2.525 2.355 2.668 1.145.212 2.781-.4 3.922-.943 2.101-.993 3.9-3.985 5.652-3.604 1.383.3 2.465 4.688 2.667 6.267.218 1.694-.229 2.988-.155 4.547.203 2.643 3.536 2.374 5.176 3.76.496.418.69 1.49 1.102 2.036.797 1.06 1.76 1.06 1.883 2.192.293 2.707-2.457 2.936-2.2 5.956-.567 1.17-1.997 1.1-1.882 2.663.182 2.473 3.741.578 4.708 2.509.522 1.037-.087 1.808-.471 3.287 1.216 1.448 1.208 3.76-.941 3.763-1.303 0-1.663-1.4-2.984-1.724z"/>
    <path fill="#E6E8EA" d="M334.762 59.58c.181-.895-.52-2.006-1.416-2.51-.514-.287-1.303-.153-1.882-.47-1.53-.839-2.085-2.588-2.979-2.975.113-1.718-.473-2.96 0-4.076.284-.677 2.344-2.587 3.451-2.975 1.371-.483 2.806-.052 3.61-1.096.361-.052.602.023.785.154-.007.99-.84 1.151-.943 2.038.194 1.424 2.706.534 2.979 1.88-.237 1.464-1.557 1.752-1.568 2.82-.005.93 1.902 2.696 2.826 3.918.688.907 1.894 1.579 2.512 2.508.538.812.658 1.778 1.097 2.192.825.78 2.687.91 2.827 2.038.182 1.496-1.863 2.086-1.57 3.76-2.156 1.689-5.751.815-9.262 1.254-1.589.202-3.341 1.78-5.021.471-.389-1.052 1.395-1.195 1.57-2.193-.123-.925-1.297-.795-1.57-1.567.456-1.219 1.878-1.467 1.728-3.292.876-.954 2.56-.593 2.826-1.879z"/>
    <path fill="#E6E8EA" d="M322.991 55.817c2.096-1.278 5.757-.3 5.961 1.254.154 1.176-1.114 1.346-1.57 2.663-.408 1.199.079 2.623-.467 3.45-.48.717-1.785.673-2.672.939-1.973.589-5.786 2.904-7.375.311.229-1.387 1.578-1.665 2.04-2.816.029-.906-.938-1.384-.784-2.35.19-1.184 1.082-.776 2.354-1.255.924-.352 1.32-1.468 2.513-2.196zM566.874 186.655c1.352.443 5.862 5.916 4.552 8.936-.374.858-1.928 1.962-3.453 1.72-3.107-.491-2.514-7.394-1.57-10.184.088-.226.25-.384.471-.472zM462.509 265.948c.138-1.262 1.039-3.332 2.04-4.08 1.448-1.072 3.405-.961 4.867-1.722 1.205-.628 2.875-1.669 3.766-2.82.757-.978.797-2.093 1.415-2.822.42-.503 1.371-.637 1.878-1.25.457-.554.357-1.583 1.103-2.192 2.178-.931 2.804 3.055 3.141 5.793.1.855.543 1.769.464 2.193-.226 1.249-1.605 1.507-2.037 2.358-.106 3.433-1.457 6.418-2.671 9.238-1.042 2.439-1.648 5.109-2.508 7.21-.313.764-.971 1.36-1.253 2.034-1.134 2.667-1.55 6.854-3.613 7.994-.742.406-3.608 1.106-4.395 1.096-1.923-.029-3.588-1.469-4.079-3.131-.266-.891-.005-1.82-.158-2.822-.191-1.257-.941-2.33-.786-3.762.35-3.189 3.46-4.737 3.611-7.364.115-1.979-1.004-3.945-.785-5.951zM655.393 299.945c-.012-1.384-.88-2.604-1.103-4.07-.079-.531.079-1.216 0-1.885-.103-.97-.583-1.776-.471-2.35.218-1.037 1.431-1.148 1.731-2.038.492-1.461-.602-1.694-.629-3.447-.02-1.238.94-1.84 1.572-3.446.291-.744.303-2.133.623-2.663.408-.667 2.145-1.234 2.826-1.563 2.406-1.18 4.335-3.37 6.753-3.763.61-.099 1.442.076 1.883 0 1.423-.249 3.209-1.44 5.179-1.879 1.903-.431 3.587-.27 5.021-1.101 1.574-.905 3.802-3.28 4.392-4.699.717-1.722.506-3.174 1.883-3.759.677-.285 1.339.023 2.04-.156.727-.189 2.287-.93 2.826-1.412 1.094-.977 1.273-2.58 2.51-3.604.859-.705 2.471-1.794 3.613-2.347.669-.336 1.914-.685 2.505-.63 2.216.19 3.245 3.273 5.652 2.663.86-.216 1.736-2.041 2.516-3.133 1.131-1.598 1.954-3.751 3.92-4.229 1.588-.389 3.365.609 4.237-.785.197-.989-.742-1.579 0-2.195 1.831.114 4.922 2.579 7.688 2.662 1.491.047 4.256-1.622 4.553.629.132.997-1.116 1.801-1.411 2.822-.209.719.31 1.108-.157 1.88-1.278.502-2.629.766-2.668 2.192-.048 1.788 2.533 2.626 4.078 3.608 1.062.669 1.946 1.693 2.513 2.035.483.283 1.248.419 1.569.624 1.019.66 1.74 2.157 3.143 2.197 1.593.039 3.186-1.991 4.077-3.922 1.043-2.256 1.102-4.995 1.566-7.364.159-.791.722-1.563.944-2.35.606-2.142 1.427-5.037 3.293-5.797 1.874 1.981 2.514 5.836 2.203 9.093 1.252.95 3.457.633 3.761 2.821.108.755-.375 1.722-.312 2.501.106 1.321 1.089 2.477 1.26 3.606.313 2.088-.349 3.809.622 5.328 1.225 1.916 3.626 1.852 5.181 3.922-.029 1.285.482 1.805.783 2.812.148.48.008 1.26.159 1.572.503 1.048 1.862 1.152 2.354 2.034.243.434.174 1.255.471 2.037.429 1.151 1.463 2.01 2.197 3.134.708 1.089 1.87 2.273 2.04 3.138.314 1.559-.821 2.63-1.101 3.914-.337 1.559 0 3.569-.622 5.172-.729 1.882-2.526 3.739-3.927 6.109-1.151 1.95-2.716 4.147-4.396 5.484-.991.792-2.168 1.25-3.139 2.042-1.502 1.221-2.735 2.81-4.079 4.229-1.413 1.492-3.126 2.632-4.24 3.913-1.613 1.865-2.413 4.872-5.175 5.173-1.617.178-3.067.039-4.554.629-2.324.921-3.865 2.619-5.017 2.663-1.214.038-2.335-1.421-3.456-1.568-1.256-.162-2.244.951-4.079.939-.75-.004-1.125-.443-2.195-.784-2.243-.708-4.709-.679-5.021-3.13-.179-1.337.851-1.938.78-3.138-.067-1.195-1.241-1.495-1.728-2.505.309-1.079.36-2.441-.785-3.137-.038-.974.21-1.669.63-2.191-.911.387-2.112.628-3.141 1.257-1.143.688-1.968 2.27-3.29 2.034-1.242-.434-.289-1.666-.472-2.663-.138-.759-1.875-4.001-2.672-4.543-.906-.621-4.228-1.867-5.334-2.042-4.851-.756-7.941 1.833-11.774 2.201-.983.091-2.053-.165-2.977 0-3.155.551-6.67 3.051-8.635 4.697-3.246.32-6.535-.665-9.889.316-3.325.969-5.23 3.736-10.351 2.972-1.015-.87-2.818-1.302-2.826-2.818-.012-1.195 1.771-1.966 2.354-2.82.619-.915 1.676-3.068 1.725-4.389.032-1.04-.703-2.286-.631-3.601.059-1.026.639-2.121.631-3.138zM716.595 106.275c.639 1.88 1.076 3.731 1.574 5.484-1.732 2.149-5.153 1.353-7.689 2.505-1.192.542-1.522 2.521-2.671 2.821-.923.242-1.637-.799-2.509-.783-2.254.044-3.357 3.767-6.122 2.822-1.582.941.062 4.55-1.882 4.854-1.384.218-2.145-1.566-2.985-2.662-1.016-1.33-2.465-2.059-2.505-3.135-.044-1.116 2.251-2.983 2.976-3.759.892-.953 2.643-2.73 3.765-2.979 2.093-.459 4.216.202 5.81-.467 1.375-.586 1.455-2.747 2.196-3.291.63-.464 1.347-.337 1.886-.626 1.455-.788 3.029-3.498 2.196-6.268-.524-1.749-3.428-3.664-1.566-5.8 2.778.297 6.445 3.03 6.904 5.8.179 1.081-.421 2.16-.318 3.288.057.648.659 1.345.94 2.196zM717.226 89.193c-.353.8-1.063.633-1.725 1.096-.641.452-1.403 1.888-2.194 2.038-1.262.237-2.677-1.234-3.93-.938-1.469.349-.609 1.477-1.096 2.818-1.288-.274-3.402-1.705-3.453-3.134-.034-.898 1.133-1.453 1.416-2.505.464-1.792-.742-2.694-1.416-4.389-.047-.252.15-.269.156-.47 1.533-.32 4.545 2.564 8.006 3.133 2.234.369 4.104.17 4.236 2.35zM700.434 76.033c1.554.818 5.318 2.678 2.666 4.388-1.605-.594-3.277-2.62-2.666-4.388zM640.95 219.561c.491.068 2.227 2.478 2.199 3.138-.055 1.104-1.714 1.044-2.199 2.505-.737 2.252.334 4.803-.939 5.958-.712.431-2.001.301-3.138.31-2.846-2-5.101-4.381-7.535-7.052-.883-.97-1.961-1.812-2.511-2.822-.817-1.496-1.108-3.141-2.038-4.542-.824-1.23-2.334-2.109-3.142-3.446-.655-1.1-.718-2.545-1.409-3.605-.648-.984-1.742-1.408-2.516-2.196-.499-.515-.785-1.317-1.251-1.879-1.973-2.358-5.768-3.589-5.961-7.051.803-.918 1.632.344 3.135.629.973.183 2.124-.079 2.826.155 1.425.478 2.408 2.701 3.922 3.916.848.681 1.954 1.151 2.821 1.88.933.779 1.614 1.894 2.356 2.35 1.022.625 2.437 1.036 3.768 1.884 1.815 1.151 5.054 2.35 5.494 4.704.107.582-.274 1.571-.16 2.03.218.823 1.26 1.18 1.884 1.88.772.874.931 2.18 2.04 2.354 1.106.308 1.157-1.254 2.354-1.1zM656.958 223.795c-1.186-.333-2.299-.151-2.818-.471-1.075-.66-.916-2.537-1.261-3.604-.345-1.081-1.648-1.659-2.349-3.134-1.023-2.137-1.463-6.92 1.253-7.364 1.093-.183 2.219.657 2.979.471 1.514-.372 1.248-2.328 2.513-3.138.701-.451 1.986-.262 2.984-.625 1.027-.376 1.799-1.353 2.509-2.193.659-.783 1.173-2.097 2.04-2.662.975-.642 1.88-.656 2.668-1.255 2.057-1.566 2.124-3.751 3.765-5.643 1.395-1.598 3.598 1.54 3.769 2.823.78.995 2.314 1.242 2.98 2.35-.922 2.757-3.531 2.996-2.98 6.892.092.638.523 1.816.943 2.668.448.918 1.776 1.906 1.725 2.504-.103 1.171-2.466 1.12-2.985 2.35-.476 1.139.035 1.215-.154 2.976-.662 1.278-2.434 1.586-2.985 3.138-.662 1.863.098 4.273-1.41 5.643-1.043-.056-2.185.901-3.449.778-1.375-.125-2.686-2.01-4.871-2.037-.832-.007-1.816.531-2.667.471-.669-.049-1.213-.665-2.199-.938z"/>
    <path fill="#E6E8EA" d="M646.804 220.308c3.991 0 3.991 6.186 0 6.186-3.995 0-3.995-6.186 0-6.186zM690.545 216.74c.179 2.168-2.786 2.409-3.61 4.08 1.305 1.989 1.811 4.771 3.298 6.576-.063 1.195.241 2.758-.472 3.291-3.158.606-4.859-5.064-6.123-7.047-2.415.452-.21 8.165-3.449 7.207-1.588-.471.02-2.675-.317-4.385-.292-1.504-1.767-1.812-1.882-2.983-.091-.966 1.067-1.99 1.411-2.976.499-1.421.182-4.155 1.882-4.227.841-.038 1.967 1.762 2.513 1.876 1.876.404 4.102-1.907 6.749-1.412zM693.217 241.348c1.795-.978 3.757-3.122 6.903-2.042-.688 1.951-3.055 1.911-4.549 2.822-1.514.921-2.794 2.483-4.709 2.663-.147-.278-.351-.488-.629-.63-.009-1.749 1.74-2.148 2.984-2.813zM681.754 243.848c-.181.233-.392.443-.621.63-1.194-.381-2.466-.669-2.826-1.88.88-1.29 3.409-.222 3.447 1.25zM684.738 240.089c-.577 1.188-3.804.618-4.076-.471.549-1.234 3.808-.862 4.076.471zM677.518 239.931c-.796 1.128-3.558-.091-4.549 1.096-1.634-.04-3.277-.06-3.61-1.409.471-1.147 1.959-.359 3.138-.47 1.895-.171 4.518-1.5 5.021.783zM761.953 240.247c1.134.321 6.175 3.882 4.55 5.481-.879.881-2.014-.467-3.447-.78-1.922-.419-3.396.091-4.709-.941-1.494-1.167-1.854-3.711-3.456-5.171-.808-.737-2.948-1.725-4.39-1.568-2.494.269-2.47 3.122-4.709 4.388-2.143-.23-3.412.391-5.025-.159-1.696-.576-2.548-2.772-4.083-2.971-1.592-.217-5.369 2.564-5.961.154-.478-1.951 2.634-2.592 2.823-3.916.202-1.362-1.221-3.478-1.883-4.077-.657-.593-1.581-.641-2.354-1.094-.8-.48-1.422-1.398-2.354-1.881-3.286-1.713-8.307-1.016-9.571-3.762-.225-.488.123-1.022-.158-1.721-.341-.86-1.605-1.137-2.042-1.881-1.114-1.911-.332-4.733 1.57-5.017 1.716-.253 5.1 1.86 5.493 3.138.211.668-.143 1.419 0 2.192.179.927 1.565 3.188 2.826 3.289 1.625.133 2.583-2.37 4.077-3.289 1.035-.633 2.727-1.361 4.086-1.255 1.332.103 2.228 1.152 3.761 1.722 1.098.411 2.465.574 3.77.942 1.137.32 2.124.989 3.293 1.409 3.737 1.353 8.183 2.144 10.201 4.545.551.658.538 1.628 1.26 2.352.662.668 4.293 1.321 4.392 2.821.079 1.14-1.495 1.206-1.566 2.349-.147 2.284 3.06 2.149 3.606 4.701zM769.642 229.593c.504-.136.488.244.788.31-.19 2.241-1.533 3.705-4.398 3.452-1.28-.119-3.516-1.077-3.607-1.722-.32-2.252 5.782-.865 7.217-2.04zM711.424 248.24c.158 1.303-2.118 1.152-2.355.309.045-1.009 2.073-1.325 2.355-.309zM728.838 334.105c-.469 1.955-1.963 4.128-3.924 5.484-1.414.985-5.918 2.973-6.432.16-.143-.785.876-4.421 1.251-5.173 1.111-2.196 2.295-.76 4.084-.471 1.833.296 3.558-1.107 5.021 0zM812.016 325.017c.936-.076 2.196-.912 2.984-.155-.57 1.352-1.593 2.662-2.984 3.293-.653.289-1.511.182-2.196.47-1.303.535-1.993 1.892-3.133 2.821-1.083.874-2.505 1.623-3.616 2.352-1.066.692-2.615 2.111-3.924 1.091.103-1.833 2.058-1.813 2.519-3.293-.009-1.096-.98-1.219-.944-2.35 2.175-1.903 5.596-3.271 6.115-7.205.238-1.741-1.182-5.481.943-5.643 2.5-.189 1.089 2.513 1.26 3.917.063.571.65.958.934 1.726.52 1.373.477 2.623 2.042 2.976zM796.793 334.418c-.871 2.615-4.687 3.984-7.22 5.642-.774.512-1.408 1.67-2.354 2.034-1.224.488-2.615.328-3.92.941-2.073.973-3.63 2.877-5.493 4.076-1.824 1.171-4.489 2.818-6.595 2.976-2.321.177-6.611-1.315-3.763-3.446 1.231-.919 3.847-2 5.178-2.66 4.463-2.239 10.741-3.742 14.437-6.429 2.09-1.517 3.98-3.126 5.966-4.385.99-.633 2.662 1.065 3.764 1.251zM652.725 234.605c.857-.119 1.494-.75 2.354-.778 1.828-.073 3.639 1.348 5.802 1.091.472.506.15.926.163 1.729 1.835.978 4.847.798 5.801 2.659-1.374 1.455-3.416.411-5.18.155-1.592-.226-3.288-.115-5.021-.313-2.194-.254-4.181-1.464-6.273-1.721-1.272-.159-2.572.181-3.769 0-1.412-.218-6.674-2.201-6.749-3.6-.077-1.446 2.37-1.853 4.55-1.572 2.821.368 4.704 2.853 8.322 2.35zM688.98 211.885c1.842.005 3.578-.566 4.859.158-.239 3.917-6.325.939-10.352 1.567-.86.131-1.113.795-2.045.467.052-1.325 1.486-2.666 2.982-2.817 1.151-.119 2.87.621 4.556.625z"/>
    <path fill="#EC5118" d="M581.096 142.314L576.5 147l-4.596-4.686c-.909-.927-1.528-2.108-1.779-3.394-.251-1.285-.122-2.618.37-3.829.492-1.211 1.325-2.246 2.394-2.974 1.069-.728 2.325-1.117 3.611-1.117s2.542.389 3.611 1.117c1.069.728 1.902 1.763 2.394 2.974.492 1.211.621 2.544.37 3.829-.251 1.286-.87 2.467-1.779 3.394zM576.5 139.1c.383 0 .75-.155 1.021-.431.271-.276.423-.651.423-1.042 0-.39-.152-.765-.423-1.041-.271-.276-.638-.431-1.021-.431-.383 0-.75.155-1.021.431-.271.276-.423.651-.423 1.041 0 .391.152.766.423 1.042s.638.431 1.021.431zM457.096 87.314L452.5 92l-4.596-4.686c-.909-.927-1.528-2.108-1.779-3.394-.251-1.285-.122-2.618.37-3.829.492-1.21 1.325-2.246 2.394-2.974 1.069-.728 2.325-1.117 3.611-1.117s2.542.389 3.611 1.117c1.069.728 1.902 1.763 2.394 2.974.492 1.211.621 2.544.37 3.83-.251 1.285-.87 2.466-1.779 3.393zM452.5 84.1c.383 0 .75-.155 1.021-.431.271-.276.423-.651.423-1.042 0-.39-.152-.765-.423-1.041-.271-.276-.638-.431-1.021-.431-.383 0-.75.155-1.021.431-.271.276-.423.65-.423 1.041 0 .391.152.766.423 1.042s.638.431 1.021.431zM355.096 74.314L350.5 79l-4.596-4.686c-.909-.927-1.528-2.108-1.779-3.394-.251-1.285-.122-2.618.37-3.829.492-1.21 1.325-2.246 2.394-2.974 1.069-.728 2.325-1.117 3.611-1.117s2.542.389 3.611 1.117c1.069.728 1.902 1.763 2.394 2.974.492 1.211.621 2.544.37 3.83-.251 1.285-.87 2.466-1.779 3.393zM350.5 71.1c.383 0 .75-.155 1.021-.431.271-.276.423-.651.423-1.042 0-.39-.152-.765-.423-1.041-.271-.276-.638-.431-1.021-.431-.383 0-.75.155-1.021.431-.271.276-.423.65-.423 1.041 0 .391.152.766.423 1.042s.638.431 1.021.431zM91.096 150.314L86.5 155l-4.596-4.686c-.91-.927-1.528-2.108-1.78-3.394-.25-1.285-.121-2.618.37-3.829.493-1.211 1.326-2.246 2.395-2.974 1.069-.728 2.325-1.117 3.611-1.117s2.542.389 3.611 1.117c1.07.728 1.902 1.763 2.394 2.974.492 1.211.62 2.544.37 3.829-.25 1.286-.87 2.467-1.779 3.394zM86.5 147.1c.383 0 .75-.155 1.021-.431.271-.276.423-.651.423-1.042 0-.39-.152-.765-.423-1.041-.27-.276-.638-.431-1.021-.431-.383 0-.75.155-1.021.431-.271.276-.423.651-.423 1.041 0 .391.152.766.423 1.042.27.276.638.431 1.021.431zM450.096 219.314L445.5 224l-4.596-4.686c-.909-.927-1.528-2.108-1.779-3.394-.251-1.285-.122-2.618.37-3.829.492-1.211 1.325-2.246 2.394-2.974 1.069-.728 2.325-1.117 3.611-1.117s2.542.389 3.611 1.117c1.069.728 1.902 1.763 2.394 2.974.492 1.211.621 2.544.37 3.829-.251 1.286-.87 2.467-1.779 3.394zM445.5 216.1c.383 0 .75-.155 1.021-.431.271-.276.423-.651.423-1.042 0-.39-.152-.765-.423-1.041-.271-.276-.638-.431-1.021-.431-.383 0-.75.155-1.021.431-.271.276-.423.651-.423 1.041 0 .391.152.766.423 1.042s.638.431 1.021.431zM181.096 316.314L176.5 321l-4.596-4.686c-.909-.927-1.528-2.108-1.779-3.394-.251-1.285-.122-2.618.37-3.829.492-1.211 1.325-2.246 2.394-2.974 1.069-.728 2.325-1.117 3.611-1.117s2.542.389 3.611 1.117c1.069.728 1.902 1.763 2.394 2.974.492 1.211.621 2.544.37 3.829-.251 1.286-.87 2.467-1.779 3.394zM176.5 313.1c.383 0 .75-.155 1.021-.431.271-.276.423-.651.423-1.042 0-.39-.152-.765-.423-1.041-.271-.276-.638-.431-1.021-.431-.383 0-.75.155-1.021.431-.271.276-.423.651-.423 1.041 0 .391.152.766.423 1.042s.638.431 1.021.431zM149.096 216.314L144.5 221l-4.596-4.686c-.909-.927-1.528-2.108-1.779-3.394-.251-1.285-.122-2.618.37-3.829.492-1.211 1.325-2.246 2.394-2.974 1.069-.728 2.325-1.117 3.611-1.117s2.542.389 3.611 1.117c1.069.728 1.902 1.763 2.394 2.974.492 1.211.621 2.544.37 3.829-.251 1.286-.87 2.467-1.779 3.394zM144.5 213.1c.383 0 .75-.155 1.021-.431.271-.276.423-.651.423-1.042 0-.39-.152-.765-.423-1.041-.271-.276-.638-.431-1.021-.431-.383 0-.75.155-1.021.431-.271.276-.423.651-.423 1.041 0 .391.152.766.423 1.042s.638.431 1.021.431zM41.096 32.314L36.5 37l-4.596-4.686c-.91-.927-1.528-2.108-1.78-3.394-.25-1.285-.121-2.618.37-3.829.493-1.21 1.326-2.246 2.395-2.974C33.958 21.389 35.214 21 36.5 21s2.542.389 3.611 1.117c1.07.728 1.902 1.763 2.394 2.974.492 1.211.62 2.544.37 3.83-.25 1.285-.87 2.466-1.779 3.393zM36.5 29.1c.383 0 .75-.155 1.021-.431.271-.276.423-.651.423-1.042 0-.39-.152-.765-.423-1.041-.27-.276-.638-.431-1.021-.431-.383 0-.75.155-1.021.431-.271.276-.423.65-.423 1.041 0 .391.152.766.423 1.042.27.276.638.431 1.021.431z"/>
    <path fill="#061B28" d="M590.324 140.842c.128.82.385 1.397.773 1.729.392.328.952.492 1.681.492.789 0 1.411-.307 1.867-.922.46-.616.695-1.47.704-2.564h-3.917v-1.08h3.917c0-1.08-.237-1.935-.711-2.563-.47-.629-1.128-.944-1.976-.944-.683 0-1.217.178-1.6.533-.378.356-.624.93-.738 1.723h-1.319c.105-1.044.476-1.859 1.114-2.447.638-.593 1.486-.889 2.543-.889.802 0 1.506.192 2.112.574.611.379 1.078.921 1.402 1.627.328.702.492 1.511.492 2.427v.991c0 .916-.162 1.725-.485 2.427-.324.702-.782 1.242-1.374 1.62-.588.374-1.265.561-2.031.561-1.084 0-1.955-.285-2.611-.855-.652-.574-1.039-1.387-1.162-2.44h1.319zm8.183 3.158v-7.396h2.885c.984 0 1.738.173 2.262.519.529.342.793.845.793 1.511 0 .342-.102.651-.307.929-.205.274-.508.484-.91.629.447.105.805.31 1.074.616.273.305.41.67.41 1.093 0 .679-.251 1.199-.752 1.559-.497.36-1.201.54-2.112.54h-3.343zm1.264-3.247v2.228h2.092c.529 0 .923-.098 1.183-.293.264-.196.396-.472.396-.828 0-.738-.542-1.107-1.627-1.107h-2.044zm0-1.012h1.634c1.185 0 1.778-.346 1.778-1.039s-.561-1.05-1.682-1.073h-1.73v2.112zm9.687 4.396c-1.003 0-1.818-.328-2.447-.985-.629-.66-.944-1.542-.944-2.645v-.233c0-.733.139-1.387.417-1.962.283-.578.675-1.029 1.176-1.353.506-.328 1.053-.492 1.641-.492.961 0 1.709.317 2.242.95.533.633.8 1.54.8 2.721v.526h-5.011c.018.729.23 1.319.636 1.771.41.446.929.669 1.558.669.447 0 .825-.091 1.135-.273.31-.182.581-.424.814-.725l.772.602c-.62.952-1.549 1.429-2.789 1.429zm-.157-6.631c-.511 0-.939.187-1.285.56-.347.37-.561.889-.643 1.559h3.705v-.096c-.036-.642-.21-1.139-.519-1.49-.31-.355-.73-.533-1.258-.533zm10.76 2.878c0 1.125-.258 2.032-.773 2.72-.515.689-1.212 1.033-2.092 1.033-.897 0-1.604-.285-2.119-.855v3.562h-1.265v-10.24h1.156l.061.82c.515-.638 1.231-.957 2.147-.957.888 0 1.59.335 2.105 1.005.52.67.78 1.602.78 2.796v.116zm-1.265-.144c0-.834-.178-1.492-.533-1.975-.356-.483-.843-.725-1.463-.725-.766 0-1.34.34-1.723 1.019v3.534c.378.674.957 1.011 1.736 1.011.607 0 1.087-.239 1.443-.717.36-.483.54-1.199.54-2.147zm5.947 3.897c-1.002 0-1.818-.328-2.447-.985-.629-.66-.943-1.542-.943-2.645v-.233c0-.733.139-1.387.417-1.962.282-.578.674-1.029 1.175-1.353.506-.328 1.053-.492 1.641-.492.962 0 1.709.317 2.242.95.533.633.8 1.54.8 2.721v.526h-5.011c.018.729.23 1.319.636 1.771.41.446.93.669 1.559.669.446 0 .824-.091 1.134-.273.31-.182.581-.424.814-.725l.772.602c-.62.952-1.549 1.429-2.789 1.429zm-.157-6.631c-.51 0-.939.187-1.285.56-.347.37-.561.889-.643 1.559h3.705v-.096c-.036-.642-.209-1.139-.519-1.49-.31-.355-.729-.533-1.258-.533zm7.478 5.598c.452 0 .846-.136 1.183-.41.337-.273.524-.615.561-1.025h1.196c-.023.424-.169.827-.438 1.21-.268.383-.628.688-1.08.916-.446.228-.92.342-1.422.342-1.007 0-1.809-.335-2.406-1.005-.592-.675-.888-1.595-.888-2.762v-.212c0-.72.132-1.36.396-1.921.264-.56.643-.995 1.135-1.305.497-.31 1.082-.465 1.757-.465.829 0 1.517.248 2.064.745.552.497.845 1.142.882 1.934h-1.196c-.037-.478-.219-.87-.547-1.175-.324-.31-.725-.465-1.203-.465-.643 0-1.142.232-1.497.697-.351.46-.527 1.128-.527 2.003v.239c0 .853.176 1.509.527 1.969.35.46.852.69 1.503.69zm9.858-5.475h-2.482V144h-1.264v-6.371h-2.434v-1.025h6.18v1.025zM466.324 85.842c.128.82.385 1.397.773 1.73.392.327.952.492 1.681.492.789 0 1.411-.308 1.867-.923.46-.616.695-1.47.704-2.564h-3.917v-1.08h3.917c0-1.08-.237-1.934-.711-2.563-.47-.63-1.128-.944-1.976-.944-.683 0-1.217.178-1.6.533-.378.356-.624.93-.738 1.723h-1.319c.105-1.043.476-1.86 1.114-2.447.638-.593 1.486-.889 2.543-.889.802 0 1.506.192 2.112.574.611.379 1.078.92 1.402 1.627.328.702.492 1.511.492 2.427v.991c0 .916-.162 1.725-.485 2.427-.324.702-.782 1.242-1.374 1.62-.588.374-1.265.56-2.031.56-1.084 0-1.955-.284-2.611-.854-.652-.574-1.039-1.388-1.162-2.44h1.319zm13.98-4.239V89h-1.272v-6.35h-2.515l-.151 2.768c-.082 1.271-.296 2.18-.642 2.727-.342.547-.887.832-1.634.855h-.506v-1.114l.362-.028c.41-.045.704-.282.882-.71.178-.429.292-1.222.342-2.38l.137-3.165h4.997zm3.411 2.55h1.921c.838.01 1.501.228 1.989.657.488.428.731 1.009.731 1.743 0 .738-.25 1.33-.752 1.777-.501.447-1.175.67-2.023.67h-3.131v-7.397h1.265v2.55zm0 1.032v2.783h1.88c.474 0 .841-.121 1.1-.362.26-.247.39-.582.39-1.005 0-.41-.128-.745-.383-1.005-.251-.265-.604-.401-1.059-.41h-1.928zm9.468-3.158c.929 0 1.672.313 2.228.937.561.62.841 1.438.841 2.454v.116c0 .697-.134 1.322-.403 1.873-.269.547-.657.973-1.162 1.279-.502.3-1.081.45-1.737.45-.993 0-1.793-.33-2.399-.99-.606-.666-.909-1.557-.909-2.673v-.616c0-1.554.287-2.789.861-3.705.579-.916 1.431-1.474 2.557-1.674.638-.114 1.068-.253 1.292-.417.223-.165.335-.39.335-.677h1.039c0 .57-.13 1.014-.39 1.333-.255.319-.665.544-1.231.677l-.943.212c-.752.177-1.317.478-1.695.902-.374.42-.618.98-.732 1.681.67-.774 1.486-1.162 2.448-1.162zm-.246 1.04c-.62 0-1.112.209-1.477.628-.365.415-.547.992-.547 1.73v.11c0 .792.182 1.421.547 1.886.369.46.866.69 1.49.69.629 0 1.126-.232 1.49-.697.365-.465.547-1.144.547-2.037 0-.697-.184-1.256-.553-1.675-.365-.424-.864-.636-1.497-.636zm10.862 2.317c0 1.125-.258 2.032-.773 2.72-.515.689-1.212 1.033-2.091 1.033-.898 0-1.605-.285-2.12-.855v3.562h-1.264v-10.24h1.155l.062.82c.515-.638 1.23-.957 2.146-.957.889 0 1.591.335 2.106 1.005.519.67.779 1.602.779 2.796v.116zm-1.265-.144c0-.834-.178-1.492-.533-1.975-.355-.483-.843-.725-1.463-.725-.766 0-1.34.34-1.723 1.019v3.534c.379.674.957 1.011 1.737 1.011.606 0 1.087-.239 1.442-.717.36-.483.54-1.199.54-2.147zm5.216 1.907l1.723-5.544h1.353l-2.973 8.539c-.461 1.23-1.192 1.845-2.195 1.845l-.239-.02-.472-.09v-1.024l.342.027c.428 0 .761-.087.998-.26.242-.173.44-.49.595-.95l.28-.752-2.639-7.315h1.381l1.846 5.544zm7.082.957c.451 0 .845-.136 1.183-.41.337-.273.524-.615.56-1.025h1.196c-.022.424-.168.827-.437 1.21s-.629.688-1.08.916c-.447.228-.921.342-1.422.342-1.007 0-1.809-.335-2.406-1.005-.593-.675-.889-1.595-.889-2.762v-.212c0-.72.132-1.36.397-1.92.264-.561.642-.996 1.134-1.306.497-.31 1.083-.465 1.757-.465.83 0 1.518.248 2.065.745.551.497.845 1.141.881 1.934h-1.196c-.036-.478-.219-.87-.547-1.175-.323-.31-.724-.465-1.203-.465-.642 0-1.141.232-1.497.697-.351.46-.526 1.128-.526 2.003v.24c0 .852.175 1.508.526 1.968.351.46.852.69 1.504.69zM364.851 66.047l3.253 8.121 3.254-8.121h1.703V76h-1.313v-3.876l.123-4.184-3.267 8.06h-1.005l-3.261-8.04.13 4.164V76h-1.313v-9.953h1.696zM379.746 76c-.073-.146-.132-.406-.178-.78-.588.611-1.289.917-2.105.917-.729 0-1.329-.205-1.798-.615-.465-.415-.697-.94-.697-1.573 0-.77.291-1.367.875-1.79.588-.43 1.413-.643 2.474-.643h1.231v-.581c0-.442-.132-.793-.397-1.053-.264-.264-.654-.397-1.169-.397-.451 0-.829.114-1.134.342-.306.228-.458.504-.458.827h-1.272c0-.369.13-.724.39-1.066.264-.346.62-.62 1.066-.82.451-.2.946-.301 1.484-.301.852 0 1.519.214 2.003.642.483.424.733 1.01.751 1.757v3.404c0 .68.087 1.22.26 1.62V76h-1.326zm-2.099-.964c.397 0 .773-.102 1.128-.308.356-.205.613-.471.773-.8v-1.517h-.991c-1.55 0-2.325.454-2.325 1.36 0 .397.133.707.397.93.264.224.604.335 1.018.335zm10.535-5.407H385.7V76h-1.264v-6.371h-2.434v-1.026h6.18v1.026zm6.726 0h-2.481V76h-1.265v-6.371h-2.433v-1.026h6.179v1.026zm3.753 6.508c-1.002 0-1.818-.328-2.447-.985-.629-.66-.943-1.542-.943-2.645v-.233c0-.733.139-1.387.417-1.962.282-.578.674-1.03 1.175-1.353.506-.328 1.053-.492 1.641-.492.961 0 1.709.317 2.242.95.533.633.8 1.54.8 2.72v.527h-5.011c.018.73.23 1.32.636 1.77.41.447.93.67 1.558.67.447 0 .825-.09 1.135-.273.31-.182.581-.424.814-.725l.772.602c-.62.953-1.549 1.429-2.789 1.429zm-.157-6.631c-.511 0-.939.187-1.285.56-.347.37-.561.89-.643 1.559h3.705v-.096c-.036-.642-.209-1.139-.519-1.49-.31-.355-.729-.533-1.258-.533zm10.76 2.878c0 1.125-.258 2.032-.773 2.72-.515.689-1.212 1.033-2.092 1.033-.897 0-1.604-.285-2.119-.855v3.562h-1.264v-10.24h1.155l.061.82c.515-.638 1.231-.957 2.147-.957.889 0 1.59.335 2.105 1.005.52.67.78 1.602.78 2.796v.116zm-1.265-.144c0-.834-.178-1.492-.533-1.975-.356-.483-.843-.725-1.463-.725-.766 0-1.34.34-1.723 1.019v3.534c.379.674.957 1.011 1.737 1.011.606 0 1.087-.239 1.442-.717.36-.483.54-1.199.54-2.147zm5.25-.936l1.641-2.7h1.476l-2.42 3.657L416.441 76h-1.462l-1.709-2.769L411.561 76h-1.47l2.495-3.74-2.42-3.657h1.463l1.62 2.7zm3.992.93c0-.725.141-1.377.424-1.956.287-.579.684-1.025 1.189-1.34.511-.314 1.092-.471 1.744-.471 1.007 0 1.82.348 2.44 1.046.624.697.937 1.624.937 2.782v.089c0 .72-.139 1.367-.417 1.941-.274.57-.668 1.014-1.183 1.333-.51.32-1.098.479-1.764.479-1.002 0-1.816-.349-2.44-1.046-.62-.697-.93-1.62-.93-2.769v-.089zm1.272.15c0 .82.189 1.479.567 1.975.383.497.893.746 1.531.746.643 0 1.153-.251 1.532-.752.378-.506.567-1.213.567-2.12 0-.81-.194-1.467-.581-1.968-.383-.506-.893-.76-1.531-.76-.625 0-1.128.25-1.511.746-.383.497-.574 1.208-.574 2.133zm13.296 0c0 1.125-.258 2.032-.773 2.72-.515.689-1.212 1.033-2.092 1.033-.897 0-1.604-.285-2.119-.855v3.562h-1.264v-10.24h1.155l.061.82c.515-.638 1.231-.957 2.147-.957.888 0 1.59.335 2.105 1.005.52.67.78 1.602.78 2.796v.116zm-1.265-.144c0-.834-.178-1.492-.533-1.975-.356-.483-.843-.725-1.463-.725-.766 0-1.34.34-1.723 1.019v3.534c.378.674.957 1.011 1.737 1.011.606 0 1.086-.239 1.442-.717.36-.483.54-1.199.54-2.147zm8.921 3.76H438.2v-3.158h-3.397V76h-1.272v-7.397h1.272v3.207h3.397v-3.207h1.265V76zM106.812 147.345c0 .975-.165 1.827-.493 2.556-.328.725-.793 1.279-1.394 1.661-.602.383-1.304.575-2.106.575-.784 0-1.479-.192-2.085-.575-.606-.387-1.077-.936-1.415-1.647-.332-.715-.503-1.543-.512-2.481v-.718c0-.957.166-1.803.499-2.536.332-.734.802-1.295 1.408-1.682.611-.392 1.308-.588 2.092-.588.797 0 1.499.194 2.105.581.611.383 1.08.941 1.408 1.675.328.729.493 1.579.493 2.55v.629zm-1.306-.643c0-1.18-.237-2.085-.711-2.714-.474-.633-1.137-.95-1.989-.95-.83 0-1.484.317-1.962.95-.474.629-.718 1.504-.732 2.625v.732c0 1.144.24 2.044.718 2.7.483.652 1.146.977 1.989.977.848 0 1.504-.307 1.969-.922.465-.62.704-1.507.718-2.66v-.738zm9.324 1.682c0 1.125-.257 2.032-.772 2.72-.515.689-1.213 1.033-2.092 1.033-.898 0-1.604-.285-2.119-.855v3.562h-1.265v-10.24h1.155l.062.82c.515-.638 1.23-.957 2.146-.957.889 0 1.591.335 2.106 1.005.519.67.779 1.602.779 2.796v.116zm-1.265-.144c0-.834-.177-1.492-.533-1.975-.355-.483-.843-.725-1.463-.725-.765 0-1.34.34-1.722 1.019v3.534c.378.674.957 1.011 1.736 1.011.606 0 1.087-.239 1.442-.717.36-.483.54-1.199.54-2.147zm7.664-3.636h1.264V152h-1.264v-5.394L117.817 152h-1.264v-7.396h1.264v5.4l3.412-5.4zm6.261 6.5c.451 0 .846-.136 1.183-.41.337-.273.524-.615.56-1.025h1.197c-.023.424-.169.827-.438 1.21s-.629.688-1.08.916c-.447.228-.92.342-1.422.342-1.007 0-1.809-.335-2.406-1.005-.592-.675-.889-1.595-.889-2.762v-.212c0-.72.132-1.36.397-1.921.264-.56.642-.995 1.135-1.305.496-.31 1.082-.465 1.756-.465.83 0 1.518.248 2.065.745.551.497.845 1.142.882 1.934h-1.197c-.036-.478-.218-.87-.546-1.175-.324-.31-.725-.465-1.204-.465-.642 0-1.141.232-1.497.697-.351.46-.526 1.128-.526 2.003v.239c0 .853.175 1.509.526 1.969.351.46.853.69 1.504.69zm8.928.896c-.073-.146-.132-.406-.178-.779-.588.61-1.289.916-2.105.916-.729 0-1.329-.205-1.798-.616-.465-.414-.697-.938-.697-1.572 0-.77.291-1.367.875-1.791.588-.428 1.412-.642 2.474-.642h1.231v-.581c0-.442-.132-.793-.397-1.053-.264-.264-.654-.397-1.169-.397-.451 0-.829.114-1.134.342-.306.228-.458.504-.458.827h-1.272c0-.369.13-.724.39-1.066.264-.346.619-.62 1.066-.82.451-.201.946-.301 1.483-.301.853 0 1.52.214 2.003.642.483.424.734 1.01.752 1.757v3.405c0 .679.087 1.219.26 1.62V152h-1.326zm-2.099-.964c.397 0 .773-.102 1.128-.307.356-.206.613-.472.773-.8v-1.518h-.991c-1.55 0-2.325.454-2.325 1.36 0 .397.132.707.397.93.264.223.604.335 1.018.335zm8.395-6.009c.93 0 1.672.313 2.228.937.561.62.841 1.438.841 2.454v.116c0 .697-.134 1.322-.403 1.873-.269.547-.656.973-1.162 1.279-.502.3-1.08.451-1.737.451-.993 0-1.793-.331-2.399-.991-.606-.666-.909-1.557-.909-2.673v-.616c0-1.554.287-2.789.861-3.705.579-.916 1.431-1.474 2.557-1.674.638-.114 1.069-.253 1.292-.417.223-.165.335-.39.335-.677h1.039c0 .569-.13 1.014-.39 1.333-.255.319-.665.544-1.23.677l-.944.211c-.752.178-1.317.479-1.695.903-.374.419-.617.98-.731 1.681.67-.774 1.485-1.162 2.447-1.162zm-.246 1.039c-.62 0-1.112.21-1.477.629-.364.415-.547.992-.547 1.73v.109c0 .793.183 1.422.547 1.887.369.46.866.69 1.49.69.629 0 1.126-.232 1.491-.697.364-.465.547-1.144.547-2.037 0-.697-.185-1.256-.554-1.675-.365-.424-.864-.636-1.497-.636zm9.303 5.934c-.072-.146-.132-.406-.177-.779-.588.61-1.29.916-2.106.916-.729 0-1.328-.205-1.798-.616-.464-.414-.697-.938-.697-1.572 0-.77.292-1.367.875-1.791.588-.428 1.413-.642 2.475-.642h1.23v-.581c0-.442-.132-.793-.396-1.053-.265-.264-.654-.397-1.169-.397-.451 0-.83.114-1.135.342-.305.228-.458.504-.458.827h-1.271c0-.369.129-.724.389-1.066.265-.346.62-.62 1.067-.82.451-.201.945-.301 1.483-.301.852 0 1.52.214 2.003.642.483.424.734 1.01.752 1.757v3.405c0 .679.086 1.219.26 1.62V152h-1.327zm-2.098-.964c.396 0 .772-.102 1.128-.307.355-.206.613-.472.772-.8v-1.518h-.991c-1.549 0-2.324.454-2.324 1.36 0 .397.132.707.396.93.265.223.604.335 1.019.335zM460.739 216.529h-1.21V221h-1.312v-9.953h1.312v4.389h1.026l3.479-4.389h1.634l-3.801 4.826 4.081 5.127h-1.606l-3.603-4.471zm10.835-2.925h1.265V221h-1.265v-5.394L468.163 221h-1.265v-7.396h1.265v5.4l3.411-5.4zm9.359 0V221h-1.272v-6.351h-2.515l-.151 2.769c-.082 1.271-.296 2.181-.642 2.728-.342.546-.887.831-1.634.854h-.506v-1.114l.362-.028c.41-.045.704-.282.882-.711.178-.428.292-1.221.342-2.378l.137-3.165h4.997zm6.815 0h1.265V221h-1.265v-5.394L484.337 221h-1.265v-7.396h1.265v5.4l3.411-5.4zm7.554 5.721l2.515-5.721h1.579V221h-1.264v-5.38l-2.393 5.38h-.875l-2.44-5.496V221h-1.265v-7.396h1.641l2.502 5.721zM506 221c-.073-.146-.132-.406-.178-.779-.588.61-1.289.916-2.105.916-.729 0-1.329-.205-1.798-.616-.465-.414-.697-.938-.697-1.572 0-.77.291-1.367.875-1.791.588-.428 1.412-.642 2.474-.642h1.231v-.581c0-.442-.132-.793-.397-1.053-.264-.264-.654-.397-1.169-.397-.451 0-.829.114-1.134.342-.306.228-.458.504-.458.827h-1.272c0-.369.13-.724.39-1.066.264-.346.62-.62 1.066-.82.451-.201.946-.301 1.484-.301.852 0 1.519.214 2.002.642.484.424.734 1.01.752 1.757v3.405c0 .679.087 1.219.26 1.62V221H506zm-2.099-.964c.397 0 .773-.102 1.128-.307.356-.206.613-.472.773-.8v-1.518h-.991c-1.55 0-2.325.454-2.325 1.36 0 .397.132.707.397.93.264.223.604.335 1.018.335zm11.191.964h-1.265v-3.158h-3.397V221h-1.272v-7.396h1.272v3.206h3.397v-3.206h1.265V221zm1.975-1.032l.438-.54c.492-.638.772-1.595.841-2.871l.116-2.953h4.765v6.364h.95v3.206h-1.265V221h-5.161v2.174h-1.265l.007-3.206h.574zm1.497 0h3.398v-5.196h-2.276l-.076 1.764c-.077 1.472-.426 2.616-1.046 3.432zm12.914-2.181h-.889V221h-1.265v-3.213h-.888L526.364 221h-1.599l2.645-3.828-2.392-3.568h1.531l1.907 3.062h.868v-3.062h1.265v3.062h.861l1.921-3.062h1.531l-2.399 3.575 2.645 3.821h-1.599l-2.071-3.213zm9.385 3.213c-.073-.146-.132-.406-.177-.779-.588.61-1.29.916-2.106.916-.729 0-1.328-.205-1.798-.616-.465-.414-.697-.938-.697-1.572 0-.77.292-1.367.875-1.791.588-.428 1.413-.642 2.475-.642h1.23v-.581c0-.442-.132-.793-.396-1.053-.265-.264-.654-.397-1.169-.397-.452 0-.83.114-1.135.342-.305.228-.458.504-.458.827h-1.272c0-.369.13-.724.39-1.066.264-.346.62-.62 1.066-.82.452-.201.946-.301 1.484-.301.852 0 1.52.214 2.003.642.483.424.733 1.01.752 1.757v3.405c0 .679.086 1.219.259 1.62V221h-1.326zm-2.098-.964c.396 0 .772-.102 1.128-.307.355-.206.613-.472.772-.8v-1.518h-.991c-1.55 0-2.324.454-2.324 1.36 0 .397.132.707.396.93.264.223.604.335 1.019.335zm11.395-2.652c0 1.125-.257 2.032-.772 2.72-.515.689-1.213 1.033-2.092 1.033-.898 0-1.604-.285-2.119-.855v3.562h-1.265v-10.24h1.155l.062.82c.515-.638 1.23-.957 2.146-.957.889 0 1.591.335 2.106 1.005.519.67.779 1.602.779 2.796v.116zm-1.264-.144c0-.834-.178-1.492-.534-1.975-.355-.483-.843-.725-1.463-.725-.765 0-1.339.34-1.722 1.019v3.534c.378.674.957 1.011 1.736 1.011.606 0 1.087-.239 1.442-.717.36-.483.541-1.199.541-2.147zm2.542-.007c0-.724.142-1.376.424-1.955.287-.578.684-1.025 1.19-1.34.51-.314 1.091-.471 1.743-.471 1.007 0 1.821.348 2.44 1.046.625.697.937 1.624.937 2.782v.089c0 .72-.139 1.367-.417 1.941-.274.57-.668 1.014-1.183 1.333-.51.319-1.098.479-1.763.479-1.003 0-1.816-.349-2.441-1.046-.62-.697-.93-1.62-.93-2.769v-.089zm1.272.151c0 .82.189 1.479.567 1.975.383.497.894.745 1.532.745.642 0 1.153-.25 1.531-.751.378-.506.567-1.213.567-2.12 0-.811-.193-1.467-.581-1.968-.383-.506-.893-.759-1.531-.759-.624 0-1.128.248-1.511.745s-.574 1.208-.574 2.133zM194.651 315.402h-4.17l-.936 2.598h-1.354l3.801-9.953h1.149l3.807 9.953h-1.346l-.951-2.598zm-3.773-1.08h3.384l-1.696-4.655-1.688 4.655zm9.516.527h-.923V318h-1.272v-7.396h1.272v3.13h.827l2.488-3.13h1.531l-2.925 3.554 3.171 3.842h-1.606l-2.563-3.151zm4.771-.616c0-.724.141-1.376.424-1.955.287-.578.683-1.025 1.189-1.34.511-.314 1.092-.471 1.743-.471 1.008 0 1.821.348 2.441 1.046.624.697.936 1.624.936 2.782v.089c0 .72-.139 1.367-.417 1.941-.273.57-.667 1.014-1.182 1.333-.511.319-1.098.479-1.764.479-1.002 0-1.816-.349-2.44-1.046-.62-.697-.93-1.62-.93-2.769v-.089zm1.272.151c0 .82.189 1.479.567 1.975.383.497.893.745 1.531.745.643 0 1.153-.25 1.531-.751.379-.506.568-1.213.568-2.12 0-.811-.194-1.467-.581-1.968-.383-.506-.893-.759-1.532-.759-.624 0-1.127.248-1.51.745s-.574 1.208-.574 2.133zm13.09 3.616h-1.264v-3.158h-3.398V318h-1.271v-7.396h1.271v3.206h3.398v-3.206h1.264V318zm4.341-3.151h-.923V318h-1.271v-7.396h1.271v3.13h.827l2.489-3.13h1.531l-2.926 3.554 3.172 3.842h-1.606l-2.564-3.151zm9.823 3.151c-.073-.146-.132-.406-.177-.779-.588.61-1.29.916-2.106.916-.729 0-1.328-.205-1.798-.616-.464-.414-.697-.938-.697-1.572 0-.77.292-1.367.875-1.791.588-.428 1.413-.642 2.475-.642h1.23v-.581c0-.442-.132-.793-.396-1.053-.265-.264-.654-.397-1.169-.397-.451 0-.83.114-1.135.342-.305.228-.458.504-.458.827h-1.272c0-.369.13-.724.39-1.066.264-.346.62-.62 1.067-.82.451-.201.945-.301 1.483-.301.852 0 1.52.214 2.003.642.483.424.734 1.01.752 1.757v3.405c0 .679.086 1.219.26 1.62V318h-1.327zm-2.098-.964c.396 0 .772-.102 1.128-.307.355-.206.613-.472.772-.8v-1.518h-.991c-1.55 0-2.324.454-2.324 1.36 0 .397.132.707.396.93.265.223.604.335 1.019.335zm9.926-5.387h-3.412V318h-1.271v-7.396h4.683v1.045zm3.52 4.498l1.723-5.543h1.353l-2.973 8.538c-.461 1.23-1.192 1.845-2.195 1.845l-.239-.02-.472-.089v-1.025l.342.027c.429 0 .761-.087.998-.26.242-.173.44-.49.595-.95l.28-.752-2.639-7.314h1.381l1.846 5.543zm8.668 1.853c-.073-.146-.132-.406-.178-.779-.588.61-1.289.916-2.105.916-.729 0-1.329-.205-1.798-.616-.465-.414-.697-.938-.697-1.572 0-.77.291-1.367.875-1.791.588-.428 1.412-.642 2.474-.642h1.231v-.581c0-.442-.132-.793-.397-1.053-.264-.264-.654-.397-1.169-.397-.451 0-.829.114-1.134.342-.306.228-.458.504-.458.827h-1.272c0-.369.13-.724.39-1.066.264-.346.62-.62 1.066-.82.451-.201.946-.301 1.484-.301.852 0 1.519.214 2.002.642.484.424.734 1.01.752 1.757v3.405c0 .679.087 1.219.26 1.62V318h-1.326zm-2.099-.964c.397 0 .773-.102 1.128-.307.356-.206.613-.472.773-.8v-1.518h-.991c-1.55 0-2.325.454-2.325 1.36 0 .397.133.707.397.93.264.223.604.335 1.018.335zM159.739 213.529h-1.21V218h-1.312v-9.953h1.312v4.389h1.026l3.479-4.389h1.634l-3.801 4.826 4.081 5.127h-1.606l-3.603-4.471zm5.688.704c0-.724.141-1.376.424-1.955.287-.578.683-1.025 1.189-1.34.51-.314 1.092-.471 1.743-.471 1.007 0 1.821.348 2.441 1.046.624.697.936 1.624.936 2.782v.089c0 .72-.139 1.367-.417 1.941-.273.57-.667 1.014-1.182 1.333-.511.319-1.099.479-1.764.479-1.003 0-1.816-.349-2.441-1.046-.619-.697-.929-1.62-.929-2.769v-.089zm1.271.151c0 .82.189 1.479.568 1.975.382.497.893.745 1.531.745.642 0 1.153-.25 1.531-.751.378-.506.568-1.213.568-2.12 0-.811-.194-1.467-.582-1.968-.382-.506-.893-.759-1.531-.759-.624 0-1.128.248-1.511.745-.382.497-.574 1.208-.574 2.133zm12.394-2.755h-2.482V218h-1.264v-6.371h-2.434v-1.025h6.18v1.025zm.608 2.604c0-.724.141-1.376.424-1.955.287-.578.684-1.025 1.189-1.34.511-.314 1.092-.471 1.744-.471 1.007 0 1.82.348 2.44 1.046.624.697.937 1.624.937 2.782v.089c0 .72-.139 1.367-.417 1.941-.274.57-.668 1.014-1.183 1.333-.51.319-1.098.479-1.764.479-1.002 0-1.816-.349-2.44-1.046-.62-.697-.93-1.62-.93-2.769v-.089zm1.272.151c0 .82.189 1.479.567 1.975.383.497.893.745 1.531.745.643 0 1.153-.25 1.532-.751.378-.506.567-1.213.567-2.12 0-.811-.194-1.467-.581-1.968-.383-.506-.893-.759-1.531-.759-.625 0-1.128.248-1.511.745s-.574 1.208-.574 2.133zM194.069 218h-1.264v-6.351H189.4V218h-1.271v-7.396h5.94V218zm6.597 0c-.073-.146-.132-.406-.178-.779-.588.61-1.289.916-2.105.916-.729 0-1.329-.205-1.798-.616-.465-.414-.697-.938-.697-1.572 0-.77.291-1.367.875-1.791.588-.428 1.412-.642 2.474-.642h1.231v-.581c0-.442-.132-.793-.397-1.053-.264-.264-.654-.397-1.169-.397-.451 0-.829.114-1.134.342-.306.228-.458.504-.458.827h-1.272c0-.369.13-.724.39-1.066.264-.346.62-.62 1.066-.82.451-.201.946-.301 1.484-.301.852 0 1.519.214 2.002.642.484.424.734 1.01.752 1.757v3.405c0 .679.087 1.219.26 1.62V218h-1.326zm-2.099-.964c.397 0 .773-.102 1.128-.307.356-.206.613-.472.773-.8v-1.518h-.991c-1.55 0-2.325.454-2.325 1.36 0 .397.133.707.397.93.264.223.604.335 1.018.335zm7.629-3.732l1.641-2.7h1.476l-2.419 3.657 2.495 3.739h-1.463l-1.709-2.769-1.709 2.769h-1.47l2.495-3.739-2.42-3.657h1.463l1.62 2.7zm9.249-2.7h1.265V218h-1.265v-5.394L212.034 218h-1.264v-7.396h1.264v5.4l3.411-5.4zM58.11 36.44h-1.305V34H49.66v2.447H48.35l-.007-3.52h.813c.429-.483.768-1.13 1.019-1.942.255-.815.415-1.709.478-2.68l.22-4.258h5.953v8.88h1.299l-.014 3.513zm-7.458-3.513h4.854v-7.8h-3.37l-.144 2.926c-.06 1.144-.212 2.119-.458 2.925-.241.807-.535 1.457-.882 1.949zm11.902 1.21c-1.003 0-1.819-.328-2.448-.985-.629-.66-.943-1.542-.943-2.645v-.233c0-.733.14-1.387.417-1.962.283-.578.675-1.03 1.176-1.353.506-.328 1.053-.492 1.64-.492.962 0 1.71.317 2.243.95.533.633.8 1.54.8 2.72v.527h-5.011c.018.73.23 1.32.636 1.77.41.447.93.67 1.558.67.447 0 .825-.09 1.135-.273.31-.182.58-.424.813-.725l.773.602c-.62.953-1.55 1.429-2.79 1.429zm-.157-6.631c-.51 0-.94.187-1.286.56-.346.37-.56.89-.642 1.559h3.705v-.096c-.037-.642-.21-1.139-.52-1.49-.31-.355-.729-.533-1.258-.533zM72.95 34h-1.264v-3.158h-3.398V34h-1.271v-7.396h1.271v3.206h3.397v-3.206h1.265V34zm6.604 0c-.073-.146-.133-.406-.178-.78-.588.611-1.29.917-2.105.917-.73 0-1.329-.205-1.798-.615-.465-.415-.698-.94-.698-1.573 0-.77.292-1.367.875-1.79.588-.43 1.413-.643 2.475-.643h1.23v-.581c0-.442-.132-.793-.396-1.053-.264-.265-.654-.397-1.169-.397-.451 0-.83.114-1.135.342-.305.228-.458.504-.458.827h-1.271c0-.369.13-.724.39-1.066.264-.347.62-.62 1.066-.82.451-.2.946-.301 1.483-.301.852 0 1.52.214 2.003.642.483.424.734 1.01.752 1.757v3.404c0 .68.087 1.22.26 1.62V34h-1.326zm-2.099-.964c.397 0 .772-.102 1.128-.308.355-.205.613-.471.772-.8v-1.517h-.99c-1.55 0-2.325.454-2.325 1.36 0 .397.132.707.397.93.264.224.603.335 1.018.335zm11.211-6.433V34h-1.272v-6.35H84.88l-.15 2.768c-.083 1.271-.297 2.18-.643 2.727-.342.547-.886.832-1.634.855h-.506v-1.114l.363-.028c.41-.045.704-.282.881-.71.178-.429.292-1.222.342-2.38l.137-3.165h4.997zm6.815 0h1.265V34h-1.265v-5.394L92.072 34h-1.265v-7.396h1.264v5.4l3.411-5.4z"/>
</svg>
